<?xml version="1.0" encoding="UTF-8" standalone="no"?>
<svg
   xmlns:dc="http://purl.org/dc/elements/1.1/"
   xmlns:cc="http://creativecommons.org/ns#"
   xmlns:rdf="http://www.w3.org/1999/02/22-rdf-syntax-ns#"
   xmlns:svg="http://www.w3.org/2000/svg"
   xmlns="http://www.w3.org/2000/svg"
   viewBox="0 0 1092 798.66669"
   height="798.66669"
   width="1092"
   xml:space="preserve"
   id="svg2"
   version="1.1"><metadata
     id="metadata8"><rdf:RDF><cc:Work
         rdf:about=""><dc:format>image/svg+xml</dc:format><dc:type
           rdf:resource="http://purl.org/dc/dcmitype/StillImage" /></cc:Work></rdf:RDF></metadata><defs
     id="defs6" /><g
     transform="matrix(1.3333333,0,0,-1.3333333,0,798.66667)"
     id="g10"><g
       transform="translate(106.6763,4.9601593)"
       id="g12"><g
         transform="translate(285.41,590.51)"
         id="g14"><path
           id="path16"
           style="fill:#000000;fill-opacity:1;fill-rule:nonzero;stroke:none"
           d="m 0,0 c 29.49,1.97 59.27,-0.91 87.91,-8.16 31.75,-9.06 63.4,-20.39 90.79,-39.24 44.53,-30.7 83.86,-71.15 105.98,-121.08 16.25,-32.65 25.25,-68.74 27.68,-105.06 3.64,-47.05 -4.61,-95.24 -24.83,-137.96 -22.28,-51 -59.77,-95.11 -106.04,-125.95 -12.54,-8.66 -25.88,-16.21 -39.98,-22.01 -37.79,-18.44 -80.15,-25.81 -121.92,-26.77 -42.74,0.3 -85.7,9.47 -123.93,28.84 -24.93,10.16 -46.64,26.58 -66.83,44.11 -28.91,25.42 -52.95,56.37 -70.25,90.77 -12.98,27.87 -23.55,57.18 -27.23,87.86 -11.88,70.49 4.56,144.95 43.75,204.58 27.55,40.68 65.02,74.56 108.51,97.5 C -80.23,-14.33 -40.52,-2.55 0,0 m 8.83,-3.1 c -37.02,-0.55 -73.35,-10.07 -107.36,-24.29 -63.56,-28.78 -117.61,-80.07 -145.66,-144.38 -10.77,-23.21 -17.31,-48.15 -21.77,-73.28 -5.53,-36.82 -3.78,-74.52 4.15,-110.85 13.71,-58.19 44.68,-112.69 89.68,-152.33 18.99,-16.52 39.18,-32.06 61.93,-43.07 34.3,-17.81 72.33,-27.95 110.78,-31.08 35.52,-1.3 71.63,1.57 105.7,12.21 33.83,11.07 66.37,27.2 93.71,50.22 32.53,25.18 58.13,58.39 77.5,94.47 7.75,16.47 15.92,32.92 20.48,50.64 9.21,30.82 14.45,63.12 11.7,95.34 -1.46,35.43 -10.12,70.4 -24.21,102.9 -13.87,29.68 -31.1,58.27 -54.49,81.46 -22.26,23.31 -48.24,42.94 -76.45,58.49 C 109.72,-13.79 59.29,-0.86 8.83,-3.1 M 3,-18.92 c 26.01,1.28 52.24,-0.94 77.7,-6.44 42.89,-10.18 82.98,-31.09 116.79,-59.23 25.15,-20.13 45.25,-45.91 61.27,-73.72 25.85,-44.6 38.39,-96.72 35.83,-148.21 -3.54,-72.33 -38.12,-141.95 -91.42,-190.59 -17.93,-15.55 -37.45,-29.52 -58.59,-40.37 -32.95,-17.36 -69.8,-26.49 -106.81,-29.38 -31.05,-2.42 -62.33,1.61 -92.11,10.5 -40.74,10.68 -77.66,33.11 -108.76,61.17 -49.04,44.71 -81.15,107.57 -88.57,173.53 -3.45,29.71 -2.63,60.09 4.03,89.31 9.13,41.33 27.03,81.14 54.46,113.61 47.55,58.71 120.55,96.46 196.18,99.82 m -50.49,-10.4 c -22.52,-6.25 -44.6,-14.52 -64.95,-26.12 -35.22,-18.99 -65.35,-46.71 -88.95,-78.89 3.38,-6.18 0.73,-13.1 0.94,-19.7 5.06,1.56 6.58,7.35 9.63,11.03 28.98,40.16 69.4,72.38 115.79,90.05 32.14,12.42 66.62,19.93 101.21,18.05 70.45,-2.73 139.88,-34.31 186.52,-87.49 10.86,-12.65 21.67,-25.69 29.04,-40.75 4.35,1.6 8.73,3.09 13.19,4.42 -9.63,19.49 -24.17,35.95 -38.35,52.21 -44.12,45.91 -104.26,76.03 -167.52,83.55 -32.23,3.36 -65.09,1.55 -96.55,-6.36 M -81.32,-59.7 c -22.82,-10.61 -45.33,-23.06 -63.63,-40.56 8.01,1.96 12.99,9.33 20.01,13.17 7.5,3.89 13.91,9.48 21.03,13.97 9.95,5.7 20.88,9.37 31.55,13.47 10.27,4.03 21.38,5.3 31.65,9.34 7.23,2.68 14.75,4.52 22.41,5.34 10.31,1.99 20.79,4.4 31.37,3.23 3.12,-0.63 6.29,-1.01 9.48,-0.8 8.49,0.88 16.68,-2.13 25.09,-2.64 16.05,0.09 31.49,-4.84 46.91,-8.63 12.54,-4.88 25.01,-10.61 38.42,-12.63 -17.21,9.37 -35.96,15.35 -54.83,20.34 -52.73,13.7 -109.43,6.98 -159.46,-13.6 m 87.67,16.12 c 0.43,-0.98 0.86,-1.96 1.3,-2.94 0.72,0 2.16,0 2.88,0 0.43,0.98 0.86,1.96 1.3,2.94 -1.83,0 -3.66,0 -5.48,0 m -18.61,-3.21 c 2.19,0.13 6.59,0.39 8.78,0.52 -2.89,1.27 -6,0.8 -8.78,-0.52 m 36.17,2.1 c -1.17,-1.46 1.36,-3.12 2.36,-1.64 1.16,1.46 -1.37,3.12 -2.36,1.64 m 10.44,-4.32 c 1.5,-1.94 2.98,-3.9 4.48,-5.84 0.31,3.35 0.71,6.7 1.21,10.03 -1.99,-1.27 -3.86,-2.71 -5.69,-4.19 m -30.95,1.9 c 0.76,-1.12 1.53,-2.23 2.29,-3.34 0.72,-0.03 2.16,-0.09 2.88,-0.12 0.39,1.05 0.79,2.1 1.19,3.15 -2.12,0.12 -4.24,0.24 -6.36,0.31 m -33.12,-2.12 c 2.08,-0.54 4.16,-1.08 6.25,-1.61 -0.01,0.92 -0.02,2.75 -0.03,3.67 -2.08,-0.69 -4.15,-1.37 -6.22,-2.06 m 48.44,0.25 c 2.24,-0.6 4.52,-1.06 6.82,-1.43 -1.62,2.58 -4.3,2.61 -6.82,1.43 m 28.15,0.04 c 1.58,-1.44 3.1,-3 4.94,-4.1 1.63,0.18 3.15,0.86 4.69,1.41 -2.41,0.67 -7.22,2.02 -9.63,2.69 m -58.3,-0.55 c 0.02,-1.39 0.04,-2.78 0.06,-4.17 1.17,0.2 2.33,0.41 3.5,0.61 0.2,1.17 0.4,2.33 0.61,3.5 -1.4,0.02 -2.78,0.04 -4.17,0.06 m 81.6,-1.4 c 1.68,-1.09 3.39,-2.16 5.12,-3.19 0.09,0.93 0.28,2.78 0.38,3.71 -1.84,-0.17 -3.67,-0.34 -5.5,-0.52 m -114.93,-3.3 c 1.78,-0.13 3.56,-0.26 5.34,-0.39 0,0.81 -0.02,2.42 -0.03,3.23 -1.77,-0.94 -3.55,-1.87 -5.31,-2.84 m 15.14,1.88 c 0.96,-1.71 1.93,-3.41 2.91,-5.11 1.84,1.71 3.6,3.51 5.16,5.49 -2.7,-0.11 -5.39,-0.24 -8.07,-0.38 m 52.43,0.93 c -1.84,0.15 -2.14,-2.82 -0.11,-2.59 1.88,-0.23 2.12,2.85 0.11,2.59 m 42.11,0.31 c 1.65,-3.45 4.55,-6.16 8.61,-4.67 -2.53,2.13 -5.46,3.7 -8.61,4.67 M -6.1,-52.85 c 0.11,-0.67 0.33,-2.02 0.44,-2.7 1.26,0.89 2.52,1.77 3.77,2.68 -1.41,0.01 -2.81,0.02 -4.21,0.02 m 13.49,0.17 c -0.46,-1.42 1.94,-1.93 2.4,-0.66 0.45,1.42 -1.95,1.93 -2.4,0.66 m 76.43,0.1 c 2.4,-2.15 5.39,-3.44 8.56,-3.96 -2.41,2.14 -5.44,3.3 -8.56,3.96 m -62.23,-2.71 c -25.03,-0.38 -50.02,-4.07 -74,-11.28 -21.66,-7.94 -44.53,-14.38 -62.91,-29 -4.09,-3.56 -9.19,-5.47 -13.84,-8.1 -11.63,-10.38 -22.36,-21.72 -32.85,-33.24 -9.32,-7.85 -14.49,-19.05 -21.18,-28.96 -2.52,-3.63 -5.68,-6.84 -7.66,-10.83 4.73,-2.07 8.73,2.01 10.89,5.78 18.52,31.65 45.13,58.43 76.31,77.64 15.16,8.74 30.85,16.74 47.35,22.63 20.59,6.32 41.85,10.98 63.43,11.78 30.65,1 61.74,-2.73 90.56,-13.54 40.14,-14.82 76.78,-39.84 103.45,-73.5 7.35,-10.15 17.89,-19.38 19.37,-32.53 -9.11,9.44 -14.65,21.73 -23.16,31.69 -23.62,27.89 -53.24,51.16 -87.33,64.77 -49.1,22.68 -106.34,24.17 -157.81,8.93 -21.61,-7.28 -42.76,-16.46 -61.61,-29.43 -25.6,-17.56 -48.81,-39.74 -63.98,-67.05 -3.32,-4.57 -2.18,-12.73 4.07,-13.91 6.79,-1.54 10.91,4.54 15.17,8.4 6.16,-1.73 12.41,-3.11 18.63,-4.59 3.3,-7.39 5.9,-15.35 11.64,-21.31 7.17,-8.29 16.62,-17.05 28.39,-16.4 -0.01,-7.29 4.97,-13.82 12.73,-14.01 5.06,11.57 10.55,23.03 17.78,33.43 8.06,10.65 18.05,19.69 28.95,27.34 -16.48,6.47 -34.25,10.2 -48.99,20.51 -3.62,2.16 -5.23,6.26 -5.02,10.31 0.09,12.76 -0.15,25.51 -0.22,38.27 -0.88,3.76 0.42,6.38 3.89,7.86 27.03,12.02 56.49,17.63 85.95,19.04 20.95,2.15 41.9,-0.63 62.75,-2.62 22.89,-2.37 45.2,-9.06 66.15,-18.47 2.34,-0.9 2.72,-3.65 2.92,-5.83 0.46,-15.05 0.45,-30.11 1.35,-45.14 -15.13,-12.52 -34.38,-17.15 -52.78,-22.47 4.08,-4.34 9.11,-7.58 13.69,-11.35 7.12,-6.19 13.76,-13.03 19.04,-20.89 6.26,-9.83 9.27,-21.24 14.84,-31.44 5.35,3.3 10.29,7.24 11.73,13.78 11.71,2.96 20.54,11.76 29.48,19.37 6.78,5.85 8.03,15.4 14.08,21.74 4.27,1.94 8.96,3.03 13.62,3.54 5.06,-1.3 7.56,-7.81 13.15,-8.16 8.81,-0.19 15.11,7.73 24.14,7.24 0.08,3.82 2.06,7.05 4.59,9.78 -1.22,0.22 -2.43,0.45 -3.63,0.67 -2.32,-3.09 -4.81,-6.09 -6.6,-9.53 -3.39,4.99 -7,9.83 -10.38,14.82 -7.77,13.75 -19.22,24.86 -29.39,36.79 -4.45,5.63 -10.64,9.4 -16.08,13.93 -14.54,11.98 -30.82,21.65 -47.5,30.31 -11.4,3.87 -22.63,8.25 -34.04,12.08 -17.49,4.8 -35.39,7.88 -53.31,10.53 -5.22,1.01 -10.55,0.74 -15.82,0.62 m -67.14,-0.88 c 1.43,-1.64 2.86,-3.28 4.31,-4.9 1.12,1.54 2.23,3.11 3.31,4.69 -2.54,0.19 -5.08,0.26 -7.62,0.21 m 128.86,0.83 c -0.14,-1.61 -0.27,-3.21 -0.38,-4.82 1.88,0.12 5.65,0.35 7.53,0.47 -2.27,1.63 -4.68,3.06 -7.15,4.35 m -145.33,-6.34 c 3.56,-1.84 7.49,-1.43 10.77,0.81 -1.82,1.54 -3.3,3.93 -5.83,4.3 -1.85,-1.5 -3.37,-3.34 -4.94,-5.11 m -13.07,-0.91 c 1.8,-1.97 2.49,-5.72 5.52,-5.99 1.74,2.57 -0.3,5.7 -0.76,8.41 -1.59,-0.79 -3.18,-1.59 -4.76,-2.42 M 99.2,-63.84 c 1.55,-2.73 3.99,-4.82 6.56,-6.56 0.11,2.55 0.45,5.1 0.27,7.66 -1.07,1.34 -2.74,1.98 -4.33,2.47 -0.97,-1.09 -1.83,-2.28 -2.5,-3.57 m -153.48,0.38 c -0.21,-0.28 -0.61,-0.85 -0.82,-1.13 0.85,-3.14 4.17,1.66 0.82,1.13 m 176.02,-2.45 c -0.86,-3.98 3.99,0.82 0,0 m -6.85,0.26 c -0.12,-1.69 -0.23,-3.37 -0.34,-5.05 2.63,-0.77 5.28,-1.42 7.97,-1.94 -1.55,3.28 -4.4,5.51 -7.63,6.99 m -206,-6.48 c 2.67,-1.3 5.6,-1.53 8.38,-0.44 -0.51,0.9 -1.54,2.68 -2.05,3.57 -2.13,-1.01 -4.24,-2.06 -6.33,-3.13 m 228.18,2.89 c 2.53,-2.5 5.63,-4.31 8.97,-5.5 -2.33,2.76 -5.42,4.72 -8.97,5.5 m -7.5,-2.71 c 0.96,-1.91 1.95,-3.81 2.94,-5.71 1.63,0.27 3.27,0.55 4.92,0.83 -2.44,1.92 -5.12,3.47 -7.86,4.88 m -229.91,-4.78 c 0,-0.66 0,-1.97 0,-2.62 0.47,-0.34 1.42,-1.03 1.89,-1.37 0.55,0.35 1.64,1.06 2.19,1.41 -0.34,1.29 -0.67,2.57 -1.01,3.85 -1.02,-0.42 -2.05,-0.85 -3.07,-1.27 m 111.35,0.23 c -3.61,-2.08 -7.73,-2.96 -11.62,-4.36 0.88,-0.31 2.63,-0.92 3.51,-1.23 -1.52,-1.74 -2.94,-3.59 -4.7,-5.1 -4.69,-0.19 -9.36,0.22 -14.02,0.61 -0.24,1.41 -0.5,2.82 -0.78,4.23 1.62,1.46 3.2,2.96 4.72,4.54 -3.26,-0.22 -6.48,-0.46 -9.72,-0.75 1,-0.86 2.01,-1.71 3.03,-2.55 -4.07,-0.71 -8.15,-1.26 -12.14,-2.32 1.41,-0.92 2.84,-1.85 4.27,-2.76 -2.08,-0.63 -4.16,-1.27 -6.23,-1.92 1.72,-0.39 5.18,-1.17 6.91,-1.56 -6.21,-2.48 -14.99,-5 -19.08,2.07 -4.32,-0.1 -8.65,-0.26 -12.96,-0.41 3.56,-0.91 7.12,-1.66 10.73,-2.38 -5.27,-3.47 -11.28,-5.65 -17.59,-6.22 6.92,-1.32 13.74,0.11 20.17,2.66 7.52,1.26 15.48,0.99 22.67,3.95 8.94,4.15 19.15,-0.07 28.39,2.56 3.18,1.29 6.09,3.18 9.1,4.83 -0.63,0.86 -1.25,1.71 -1.88,2.57 5.07,0.24 10.03,1.48 14.71,3.44 -5.78,1 -11.69,0.57 -17.49,0.1 m 16.92,-4.48 c 1.98,-1.57 3.99,-3.1 6,-4.62 -1.03,-1.52 -2.01,-3.08 -2.95,-4.67 1.63,-0.02 4.87,-0.06 6.5,-0.08 0.53,2.26 1.32,4.44 2.08,6.63 -2.13,1.05 -4.24,2.12 -6.33,3.25 8.09,-0.01 16.96,-0.58 22.98,-6.65 -0.33,0.45 -0.97,1.35 -1.29,1.8 -1.81,2.61 -4.34,4.68 -7.26,5.92 -6.21,3.85 -13.6,0.92 -19.73,-1.58 m 28.28,3.42 c -0.15,-0.85 -0.46,-2.57 -0.62,-3.43 1.81,0.65 3.61,1.3 5.4,2 -1.6,0.49 -3.18,0.97 -4.78,1.43 m 95.1,0.32 c 2.98,-3.29 6.48,-6.23 10.88,-7.35 -3.42,2.75 -7.06,5.22 -10.88,7.35 m -202.54,-6.92 c 6.83,-2.65 13.65,0.43 19.03,4.58 -6.1,-2.61 -12.84,-2.36 -19.03,-4.58 m 194.94,5.59 c 0.03,-4.68 0.93,-9.94 7.87,-8.18 -1.62,3.57 -4.27,6.55 -7.87,8.18 m -78.48,-2.11 c -3.81,-0.58 -7.13,-2.61 -10.31,-4.64 7.39,-4.32 15.26,-9.02 24.21,-8.18 -5.2,1.82 -10.3,4.18 -14.06,8.32 1.68,0.46 3.37,0.91 5.07,1.35 -1.57,1.14 -2.98,2.66 -4.91,3.15 M 15.62,-94.25 c 2.89,0.2 5.78,0.43 8.69,0.63 -0.09,3.76 0.67,7.52 0.28,11.28 -8.71,2.65 -8.36,-6.46 -8.97,-11.91 m 67.01,12.26 c 0.11,-0.81 0.32,-2.45 0.43,-3.26 1.75,0.1 5.26,0.3 7.02,0.41 -2.43,1.08 -4.93,2.01 -7.45,2.85 m -196.91,-3.05 c 2.52,-1.18 5.2,-1.15 6.82,1.43 -2.3,-0.37 -4.58,-0.83 -6.82,-1.43 m 191.4,-1.76 c -1.16,-0.78 0.12,-2.86 1.32,-2.04 1.19,0.8 -0.09,2.91 -1.32,2.04 m 5.67,-1.89 c 3.4,-4.19 7.85,-7.63 12.91,-9.53 4.64,0.36 8.92,2.62 13.28,4.16 -4.13,-0.72 -8.21,-1.87 -12.37,-2.25 -2.89,1.15 -5.44,3.03 -8.11,4.62 2.01,1.27 3.99,2.59 5.93,3.97 -3.9,-0.17 -7.77,-0.54 -11.64,-0.97 m 63.97,1.01 c -0.53,-1.63 0.03,-2.18 1.66,-1.66 0.52,1.63 -0.04,2.18 -1.66,1.66 m 11.01,0.83 c 0.43,-3.96 2.01,-7.77 6.54,-8.24 -1.41,3.3 -3.81,5.98 -6.54,8.24 M 7.08,-88.78 c -1.33,-1.39 1.07,-3.5 2.34,-2.14 1.34,1.41 -1.06,3.58 -2.34,2.14 m -23.56,-3.07 c -5.06,0.44 -8.38,-4.2 -12.34,-6.56 1.4,-1.87 2.69,-3.82 3.8,-5.88 -2.57,-0.22 -5.17,-0.21 -7.72,-0.68 -3.58,-1.63 -6.56,-4.28 -9.81,-6.43 9.06,4.05 19.9,2.88 27.91,9.34 -0.24,2.14 -1,4.29 -0.6,6.45 2.05,2.25 4.45,4.17 6.71,6.22 -2.59,-0.96 -5.13,-2.37 -7.95,-2.46 m 75.44,2.66 c -0.75,-3.15 -1.28,-6.74 -4.44,-8.44 -0.4,-0.33 -1.22,-0.98 -1.62,-1.3 0.88,-1.14 1.76,-2.28 2.65,-3.42 -4.08,-0.67 -8.18,-1.34 -12.26,-1.97 7.06,0.31 14.17,0.18 21.14,-1.09 0.35,0.49 1.06,1.47 1.42,1.96 -1.47,1.27 -2.95,2.53 -4.41,3.81 5.34,2.48 11.07,2.27 16.41,0.17 -1.42,-2.15 -2.91,-4.24 -4.43,-6.32 7.62,-0.11 14.48,-3.26 21.45,-5.99 -1.27,2.11 -2.63,4.16 -4.04,6.18 0.85,0.49 1.72,0.99 2.59,1.48 -0.67,0.86 -1.34,1.71 -2.01,2.57 -4.34,-1.02 -8.66,-2.1 -13.02,-3.05 0.67,1.66 1.36,3.31 2.06,4.96 -5.68,2.43 -11.57,4.87 -17.88,4.58 1.05,0.64 2.1,1.29 3.16,1.93 -2.25,1.33 -4.5,2.65 -6.77,3.94 m 109.33,-0.19 c 4.26,-4.24 8.74,-8.71 14.66,-10.46 -4.27,4.3 -9,8.17 -14.66,10.46 m -294.28,-3.19 c 1.81,-0.71 3.62,-1.4 5.44,-2.1 0.8,1.35 1.59,2.7 2.37,4.05 -2.66,-0.4 -5.28,-1.03 -7.81,-1.95 m 164.51,1.22 c -4.37,-0.62 -8.46,-2.48 -12.67,-3.68 2.27,-1.69 4.64,-3.24 7,-4.79 -1.04,-1.79 -2,-3.62 -2.93,-5.47 2.61,0.25 5.22,0.51 7.83,0.78 -0.77,1.26 -1.53,2.51 -2.29,3.77 2.99,-0.62 6,-1.25 9,-1.87 0.45,0.92 0.91,1.85 1.37,2.76 -2.16,0.84 -6.48,2.5 -8.64,3.34 5.79,1.25 11.81,1.28 17.33,-1.12 -3.8,2.36 -7.83,4.31 -11.8,6.36 0.56,-1.13 1.14,-2.26 1.71,-3.39 -1.88,1.17 -3.39,3.81 -5.91,3.31 m 72.24,1.3 c 0.07,-0.78 0.2,-2.36 0.27,-3.15 1.36,0.02 2.71,0.04 4.08,0.05 -1.44,1.06 -2.89,2.1 -4.35,3.1 m -172.65,-3.18 c 2.32,0.38 4.63,0.87 6.88,1.58 -2.33,-0.38 -4.63,-0.89 -6.88,-1.58 m -16.79,-0.13 c 1.62,-0.71 3.27,-1.4 4.9,-2.1 -1.35,-1.84 -2.63,-3.72 -3.86,-5.65 4.52,0.72 8.4,3.37 10.19,7.65 -3.74,0.23 -7.49,0.2 -11.23,0.1 m 79.62,1.35 c -0.39,-1.48 -0.78,-2.97 -1.19,-4.45 l 4.91,-0.21 c -2.94,-7.84 -12.67,-7.33 -19.53,-7.01 9.52,-2.71 20.1,1.44 29,-3.99 -0.86,4.23 -0.85,8.61 1.02,12.59 -4.56,1.71 -9.34,2.77 -14.21,3.07 m -134.82,-2.76 c -0.9,-2.26 -1.75,-4.54 -2.61,-6.82 2.45,-0.68 4.89,-1.37 7.33,-2.08 -1.38,3.07 -2.91,6.07 -4.72,8.9 m 84.19,-3.49 c 1.82,-0.48 3.63,-0.96 5.45,-1.43 -0.38,1.48 -0.76,2.96 -1.15,4.43 -1.44,-0.99 -2.87,-1.98 -4.3,-3 m 135.35,2.99 c -0.78,-1.79 -1.55,-3.58 -2.3,-5.38 3.23,0.49 6.47,0.97 9.7,1.51 -2.47,1.3 -4.93,2.59 -7.4,3.87 m -98.53,-1.36 c 0.14,-0.32 0.42,-0.97 0.56,-1.29 2.59,-0.62 0.84,3.48 -0.56,1.29 m 121.9,0.38 c 2.22,-2.75 4.64,-5.33 7.1,-7.88 0.21,1.63 0.43,3.27 0.64,4.9 -2.53,1.12 -5.1,2.15 -7.74,2.98 m 6.42,0.29 c 2.75,-1.23 5.86,-1.98 8.39,-3.72 0.03,-2.37 -0.9,-4.59 -1.72,-6.76 1.16,-0.3 2.33,-0.61 3.5,-0.92 0.54,3.1 1.18,6.18 1.94,9.23 -3.98,1 -8.05,1.67 -12.11,2.17 m 55.26,0.05 c 0.28,-2.39 0.32,-4.89 1.3,-7.14 1.59,-0.75 3.35,-1 5.06,-1.34 -2.01,2.91 -4.04,5.81 -6.36,8.48 M 19.32,-96.56 c 0.12,-4.34 0.01,-8.69 -0.34,-13.02 2.15,0.34 4.3,0.7 6.46,1.07 -1.66,4.3 0.75,11.81 -6.12,11.95 m 76.74,-3.54 c 6.61,-5.66 12.4,-12.34 19.82,-16.99 4.11,-2.91 8.78,-4.87 12.91,-7.75 -3.57,6.97 -11.87,9 -17.65,13.68 2.34,0.06 4.69,0.13 7.05,0.2 -0.01,0.43 -0.05,1.29 -0.07,1.72 -8.11,0.91 -15.4,4.57 -22.06,9.14 m -242.34,-0.52 c -1.31,-0.69 -1.32,-1.36 -0.02,-2.03 1.32,0.68 1.33,1.36 0.02,2.03 m 91.08,-1.67 c 2.27,-0.96 4.54,-1.92 6.84,-2.8 -3.44,-2.96 -7.11,-5.62 -11.09,-7.8 8.26,-1.99 14.54,3.5 19.81,8.97 1.73,-0.27 5.18,-0.79 6.9,-1.05 -7.15,2.8 -14.88,6.1 -22.46,2.68 m 233.94,1.38 c -0.86,-3.98 3.99,0.82 0,0 m -244.3,-4.51 c 2.44,1.24 4.87,2.51 7.29,3.82 -2.45,-1.24 -4.88,-2.51 -7.29,-3.82 m -80.48,0.78 c -1.05,-1.19 1.01,-2.52 1.85,-1.32 1.09,1.16 -1.03,2.52 -1.85,1.32 m 317.36,-0.3 c -0.9,-1.35 1.34,-3.19 2.54,-2.14 0.89,1.36 -1.35,3.2 -2.54,2.14 m -258.82,-0.42 c 0.09,-0.91 0.27,-2.72 0.36,-3.62 1.43,0.99 2.85,1.99 4.26,3.02 -1.54,0.2 -3.08,0.4 -4.62,0.6 m 13.33,-0.06 c -0.76,-1.37 -1.5,-2.75 -2.25,-4.12 1.11,-1.46 2.09,-3 2.92,-4.64 0.24,-0.43 0.71,-1.31 0.95,-1.75 2.45,1.71 4.8,3.55 7.19,5.35 -0.04,1.37 -0.07,2.74 -0.08,4.11 -2.91,0.32 -5.84,0.71 -8.73,1.05 m 54.9,-2.12 c 0.83,-1.05 1.67,-2.11 2.52,-3.15 2.15,1.68 4.34,3.3 6.53,4.94 -3.01,-0.67 -6.02,-1.28 -9.05,-1.79 m -161.36,-30.05 c 9.45,5.85 15.52,15.37 22.9,23.4 2.21,2.38 4.17,4.99 5.79,7.82 -11.89,-7.85 -20.96,-19.42 -28.69,-31.22 m 210.1,29.89 c 0.04,-0.99 0.11,-2.95 0.15,-3.94 4.26,-2 8.87,-4.42 13.69,-2.79 -2.51,1.32 -5.07,2.51 -7.67,3.64 1.79,0.77 3.56,1.55 5.35,2.33 -3.79,0.77 -7.68,0.84 -11.52,0.76 m 9.88,1.06 c 5.41,-2.82 11.09,-6.91 17.45,-4.14 -1.03,-2.23 -1.86,-4.55 -2.6,-6.89 -8.06,0.1 -16.17,0.89 -23.61,4.17 -3.66,1.05 -7.84,3.94 -11.57,1.55 -5.78,-3.36 -11.64,-6.56 -17.69,-9.41 16.67,-1 33.4,0.23 50.04,-1.63 11.82,-0.55 23.38,-3.21 35.12,-4.36 -6.59,9.08 -20.1,2.19 -28.31,9.2 1.53,-0.01 3.07,-0.04 4.61,-0.06 -0.63,1.61 -1.27,3.22 -1.92,4.82 5.8,3.55 12.72,1.57 19.08,1.52 -5.98,1.2 -12.05,2.07 -18.16,1.98 -0.1,1.04 -0.2,2.07 -0.29,3.1 -6.4,-5.18 -14.87,-0.11 -22.15,0.15 m -189.49,-5.19 c 2.56,0.22 5.13,0.44 7.7,0.55 -0.09,1.52 -0.19,3.03 -0.29,4.55 -2.62,-1.48 -5.12,-3.16 -7.41,-5.1 m 153.05,4.73 c -0.43,-1.14 -0.85,-2.29 -1.27,-3.43 1.27,-0.44 2.54,-0.88 3.82,-1.32 -0.94,-0.66 -1.88,-1.31 -2.81,-1.96 1.05,-1.24 2.11,-2.48 3.16,-3.73 3.29,1.61 6.54,3.29 9.81,4.97 -0.02,0.8 -0.04,2.42 -0.05,3.22 -4.16,1.05 -8.4,1.81 -12.66,2.25 m 118.37,-1.54 c 2.08,-1.17 4.26,-2.16 6.51,-2.97 -2.12,1.1 -4.3,2.09 -6.51,2.97 m 61.27,-1.55 c 1.81,-1.96 3.85,-3.7 6.06,-5.22 -0.55,2.44 -1.14,4.87 -1.73,7.3 -1.45,-0.68 -2.9,-1.38 -4.33,-2.08 m -264.83,0.57 c -1.31,-0.69 -1.32,-1.36 -0.02,-2.03 1.32,0.68 1.33,1.36 0.02,2.03 m 55.42,-3.06 c 1.8,-0.7 3.61,-1.41 5.41,-2.12 -1.62,-2.13 -3.25,-4.25 -4.86,-6.38 4.84,1.46 10.62,3.03 11.92,8.63 -4.06,1.94 -8.89,3.69 -12.47,-0.13 m 113.29,3.47 c -1.72,-3.78 -4.29,-7.14 -5.72,-11.04 2.25,-2.18 5.11,-3.55 7.88,-4.92 -0.5,2.07 -1.03,4.13 -1.6,6.19 6,1.11 12.54,1.35 17.54,-2.7 0.04,1.5 0.08,3 0.13,4.5 -4.56,1.1 -9.22,1.81 -13.82,2.65 -1.3,1.91 -2.82,3.66 -4.41,5.32 m 14.33,-0.47 c -0.53,-1.63 0.03,-2.18 1.66,-1.66 0.52,1.63 -0.04,2.18 -1.66,1.66 m 89.03,-0.51 c -1.26,-1.26 0.86,-3.37 2.12,-2.12 1.18,1.23 -0.9,3.3 -2.12,2.12 m -234.05,-0.15 c -0.83,-1.35 -1.66,-2.71 -2.48,-4.07 1.89,0.01 3.79,0.03 5.68,0.05 -1.06,1.35 -2.13,2.68 -3.2,4.02 m 239.56,-0.84 c 6.04,-9.7 13.66,-18.66 22.82,-25.53 -5.71,9.95 -13.92,18.36 -22.82,25.53 m -260.68,-1.59 c -0.52,-1.33 1.73,-2.11 2.4,-1.01 0.51,1.35 -1.75,2.21 -2.4,1.01 m 163.52,0.14 c 2.61,-0.77 5.3,-1.28 8.02,-1.53 -2.6,0.84 -5.31,1.28 -8.02,1.53 m 27.72,-0.98 c -1.09,-0.86 -1.09,-2.93 0,-3.8 1.73,-0.02 1.73,3.82 0,3.8 m -206.61,-3.09 c 2.49,0.61 4.94,1.39 7.25,2.52 -2.5,-0.59 -4.9,-1.51 -7.25,-2.52 m 17.77,2.92 c -8.76,-0.84 -14.81,-10.69 -11.24,-18.86 3.38,2.56 6.28,5.67 9.2,8.73 -1.47,0.67 -2.95,1.33 -4.43,1.98 1.59,4.82 6.55,6.36 10.51,8.69 -1.01,-0.14 -3.03,-0.4 -4.04,-0.54 m 131.59,-5.54 c 3.9,0.96 7.87,1.8 11.73,3 -0.75,0.93 -1.5,1.87 -2.25,2.8 -2.79,-2.49 -6.05,-4.34 -9.48,-5.8 m -153.22,3.64 c -0.45,-1.42 1.94,-1.93 2.4,-0.66 0.45,1.42 -1.95,1.93 -2.4,0.66 m 29.6,-2.58 c 3.14,-1.58 6.05,-3.77 9.4,-4.95 2.48,1.35 4.19,3.69 5.97,5.81 -5.01,1.85 -10.74,2.21 -15.37,-0.86 m -101.31,1.02 c -0.76,-1.66 -1.51,-3.31 -2.24,-4.97 1.1,-0.46 2.21,-0.92 3.32,-1.38 1.13,1.63 2.25,3.27 3.33,4.93 -1.47,0.48 -2.94,0.96 -4.41,1.42 m 263.84,-8.21 c 1.23,-2.82 3.69,-4.79 5.95,-6.78 -3.83,0.91 -7.81,1.28 -11.73,1.3 8.13,-5.02 17.31,-7.97 26.17,-11.45 -4.24,3.57 -8.96,6.51 -13.52,9.64 2.4,-0.24 4.82,-0.49 7.23,-0.74 -2.25,2.21 -4.45,4.48 -6.76,6.64 2.74,0.83 5.56,1.58 8.24,2.62 -3.51,1.79 -6.99,3.65 -10.61,5.18 -2.11,-1.7 -3.99,-3.86 -4.97,-6.41 m -131.35,2.05 c 7.14,0.01 14.33,0.3 21.32,1.91 -7.11,2.1 -14.88,2.03 -21.32,-1.91 m 218.43,3.57 c 0.12,-1.85 0.27,-3.7 0.43,-5.55 2.4,0.68 4.8,1.38 7.23,2.01 -2.45,1.35 -5.11,2.5 -7.66,3.54 m -273.82,-2.27 c -1.26,0.14 -2.78,-0.57 -3.25,-1.78 0.58,-2.21 5.27,0.26 3.25,1.78 m 27.18,-5.59 c -3.69,-0.4 -7.36,0.91 -11.04,0.48 -5.9,-3.27 -11.72,-6.79 -16.97,-11.05 9.64,2.32 18.7,6.52 28.3,8.99 7.66,1.74 15.62,2.4 23,5.25 -2.51,0.87 -4.99,2.05 -7.68,2.2 -6,0.36 -10.01,-4.95 -15.61,-5.87 m -34.21,5.14 c -1.89,-0.4 -1.28,-3.6 0.68,-2.92 1.89,0.4 1.27,3.6 -0.68,2.92 m 74.03,-4.84 c 2.76,-1.93 5.85,-3.49 9.38,-3.34 11.46,-0.97 23.04,-1.71 34.49,-0.23 6.93,0.88 14.63,0.52 20.73,4.49 -12.82,1.35 -25.72,1.46 -38.59,1.9 -8.71,-0.41 -17.47,-1.02 -26.01,-2.82 m 113.02,2.82 c -0.43,-1.12 -0.85,-2.25 -1.27,-3.38 1.7,-0.02 3.41,-0.02 5.12,0 -0.43,1.13 -0.85,2.26 -1.27,3.38 -0.65,0 -1.93,0 -2.58,0 m 92.13,-0.6 c -1.08,-1.15 0.84,-3.07 2,-2 1.02,1.14 -0.87,3.03 -2,2 m -280.68,-6.73 c 3.25,-0.23 6.46,-0.23 9.73,-0.29 -2.43,0.36 -4.85,0.7 -7.27,1.02 0.56,1.99 1.12,3.97 1.64,5.96 -1.43,-2.19 -2.78,-4.43 -4.1,-6.69 m 147.72,3.72 c 3.61,-0.36 7.55,-1.18 10.58,1.36 -3.55,-0.24 -7.09,-0.71 -10.58,-1.36 m -228.09,0.63 c -1.94,-0.71 -0.49,-3.65 1.24,-2.49 1.96,0.77 0.57,3.66 -1.24,2.49 m 238.22,-6.43 c 2.8,1.06 5.52,2.33 8.13,3.83 -0.6,0.87 -1.8,2.61 -2.4,3.49 -2.34,-2.08 -4.16,-4.63 -5.73,-7.32 m -148.37,5.57 c -1.66,0.1 -2.01,-2.63 -0.11,-2.37 1.66,-0.14 1.99,2.66 0.11,2.37 m 40.97,-0.66 c 3.01,-3.47 7.2,-5.65 11.77,-6.3 0,0.9 -0.01,2.71 -0.01,3.61 -3.94,0.83 -7.84,1.81 -11.76,2.69 m -131.39,-4.04 c 1.29,-0.97 2.57,-1.95 3.86,-2.93 0.44,2.36 0.87,4.72 1.27,7.08 -1.72,-1.37 -3.43,-2.76 -5.13,-4.15 m 145.35,2.81 c 3.73,-4.59 9.27,-7.08 14.8,-8.79 0.03,1.48 0.06,2.97 0.09,4.45 -4.87,1.76 -9.46,5.09 -14.89,4.34 m -17.92,-0.61 c -0.86,-3.98 3.99,0.82 0,0 m 29.52,0.02 c -0.78,-1.41 1.64,-2.62 2.5,-1.39 0.74,1.38 -1.66,2.59 -2.5,1.39 m 60.51,0.86 c -0.47,-1.11 -0.93,-2.23 -1.39,-3.35 1.88,-0.12 5.63,-0.36 7.51,-0.48 -2.14,-1.68 -4.31,-3.31 -6.45,-4.98 5.47,0.09 10.71,1.97 14.2,6.27 -4.54,1.26 -9.25,1.81 -13.87,2.54 m 79.94,-0.96 c -1.67,0.01 -2.02,-2.94 -0.24,-3.04 1.66,-0.01 2.01,2.95 0.24,3.04 m 79.54,0.14 c -1.03,-1.14 0.86,-3.03 2,-2 1.07,1.15 -0.85,3.07 -2,2 m -3.16,0.05 c -0.51,-1.77 -0.99,-3.54 -1.45,-5.33 1.9,-0.08 3.8,-0.13 5.71,-0.17 -1.28,1.93 -2.71,3.77 -4.26,5.5 m -273.41,-6.54 c 2.72,-2.36 5.63,-4.49 8.65,-6.45 0.39,0.63 1.19,1.9 1.58,2.53 -1.11,1.21 -2.23,2.4 -3.34,3.6 3.04,0.34 6.09,0.69 9.13,1.04 -1.4,1.3 -2.71,2.74 -4.41,3.66 -4.18,-0.37 -7.9,-2.6 -11.61,-4.38 m 66.4,4.42 c 0.59,-2.45 1.09,-4.92 1.53,-7.4 1.76,1.34 3.43,2.8 5.02,4.35 -2.18,1.03 -4.36,2.06 -6.55,3.05 m 26.89,-23.03 c 0.78,7.69 1.25,15.41 0.99,23.14 -4.02,-7.05 -2.09,-15.53 -0.99,-23.14 m 10.91,-1.33 c 2.66,7.94 3.66,16.37 4.15,24.69 -4.99,-7.01 -5.64,-16.42 -4.15,-24.69 m -85.01,21.87 c 6.18,-6.52 14.74,-11.17 23.93,-10.9 -3.98,6.98 -13.39,3.98 -19,8.81 1.81,0.59 5.42,1.78 7.22,2.37 -4.05,0.29 -8.11,-0.01 -12.15,-0.28 m 55.16,1.53 c 0.2,-7.39 1.63,-14.68 2.44,-22.02 1.69,7.35 0.95,15.25 -2.44,22.02 m 85.26,-3.55 c 1.7,-1.01 3.41,-2.03 5.11,-3.07 -0.55,-1.19 -1.1,-2.39 -1.63,-3.59 5.7,0.72 10.87,3.48 14.96,7.42 -5.98,2.04 -12.97,3 -18.44,-0.76 m -269.89,-1.33 c 0.89,-2.55 1.84,-5.07 2.92,-7.55 1.43,1.73 2.86,3.47 4.3,5.2 -1.62,1.33 -3.23,2.68 -4.77,4.09 -0.82,-0.58 -1.63,-1.15 -2.45,-1.74 m 143.66,2.45 c 2.41,-2.02 5.19,-3.52 8.24,-4.32 -2.27,2.23 -5.16,3.61 -8.24,4.32 m 104.45,-0.84 c 0.11,-0.7 0.34,-2.09 0.46,-2.78 2.66,-1.34 4.94,-3.35 7.7,-4.51 3.15,1.13 5.98,3.01 8.82,4.77 -5.02,3.42 -11.23,2.53 -16.98,2.52 m 56.54,0.29 c 1.07,-1.05 2.13,-2.11 3.19,-3.19 0.11,0.91 0.35,2.74 0.46,3.65 -0.91,-0.11 -2.74,-0.35 -3.65,-0.46 m 76.27,0.3 c 0.79,-1.38 1.6,-2.75 2.42,-4.12 0.67,0.67 1.35,1.33 2.04,2 -1.49,0.71 -2.98,1.42 -4.46,2.12 m -140.6,-2.48 c -1.21,-0.81 0.13,-2.9 1.33,-1.92 1.22,0.8 -0.15,2.85 -1.33,1.92 m -112.9,-2.67 c -0.08,-0.9 -0.24,-2.7 -0.31,-3.6 2.54,0.32 5.08,0.75 7.58,1.38 -1.14,1.5 -2.28,2.98 -3.43,4.46 -1.28,-0.75 -2.57,-1.49 -3.84,-2.24 m 269,1.37 c -1.24,-0.85 -0.03,-3.28 1.39,-2.5 1.19,0.85 -0.01,3.25 -1.39,2.5 m -406.4,-8.29 c 2.22,2.71 4.38,5.48 6.16,8.5 -2.21,-2.72 -4.29,-5.54 -6.16,-8.5 m 166.69,6.97 c -0.21,-0.78 -0.63,-2.34 -0.84,-3.13 6.87,-5.84 15.89,-7.23 24.55,-8.14 -5.88,1.75 -10.85,5.32 -16.22,8.12 3.31,0.6 6.62,1.22 9.92,1.91 -5.23,3.51 -11.62,1.78 -17.41,1.24 m 234.68,-5.24 c -0.84,-0.21 -1.68,-0.42 -2.51,-0.64 2.86,-1.09 5.84,-1.75 8.85,-2.27 -1.33,3.45 -2.78,6.86 -4.23,10.26 -0.89,-2.39 -1.63,-4.84 -2.11,-7.35 m -424.79,-9 c -0.92,-5.46 4.18,-8.69 6.82,-12.71 -1.05,-1.93 -2.11,-3.84 -3.16,-5.76 3.37,-1.31 6.74,-2.66 10.06,-4.1 -1.98,2.31 -3.98,4.6 -5.71,7.1 2.6,-0.9 5.14,-1.98 7.67,-3.07 -3.03,4.87 -6.26,9.67 -10.49,13.58 -1.23,1.44 -3.21,3.06 -2.4,5.17 2.08,5.41 6.98,9.16 9.1,14.58 -4.58,-4.36 -9.11,-9.02 -11.89,-14.79 m 253.12,12.07 c 4.75,-0.64 9.49,-1.16 14.26,-1.81 -4.53,-2.76 -9.88,-2.25 -14.96,-2.23 2.01,-1.01 4.02,-2.01 6.05,-3 -2.53,-0.96 -4.93,-2 -7.36,-3.1 6.24,-0.58 12.49,-1.05 18.74,-1.68 -1.92,-1.64 -3.86,-3.25 -5.73,-4.95 5.09,-0.8 10.31,0.36 14.24,3.78 -5.55,2.14 -11.28,3.78 -16.94,5.56 5.2,1.71 10.87,2.78 15.05,6.58 -7.11,4.53 -15.71,3.08 -23.35,0.85 m -83.28,-0.09 c -1.46,-1.33 0.83,-3.65 2.16,-2.15 1.46,1.31 -0.85,3.58 -2.16,2.15 m 265.43,0.79 c 1.05,-2.54 2.62,-4.81 4.55,-6.77 -1.18,2.47 -2.69,4.77 -4.55,6.77 m -299.64,-2.3 c 2.52,-5.98 8.68,-8.89 14.64,-10.39 -1.71,2.53 -3.81,4.75 -6.07,6.79 1.47,1.09 2.89,2.23 4.31,3.38 -4.24,0.93 -8.59,0.44 -12.88,0.22 m 91.35,0.47 c -0.41,-0.63 -1.22,-1.9 -1.62,-2.54 0.41,-0.65 1.25,-1.96 1.67,-2.62 1.54,1.03 3.15,1.97 4.7,2.99 -1.57,0.77 -3.16,1.47 -4.75,2.17 m 52.98,-5.23 c 4.42,0.36 8.77,1.17 13.14,1.92 -0.45,0.76 -1.34,2.29 -1.78,3.05 -3.83,-1.56 -7.67,-3.12 -11.36,-4.97 m 32.53,5.05 c 0.52,-1.37 1.06,-2.73 1.61,-4.1 -1.31,-1.18 -2.62,-2.38 -3.9,-3.6 2.61,-0.57 5.29,-1.67 8,-1.15 3.33,1.26 6.33,3.26 9.43,5.01 -3.73,4.55 -9.93,3.43 -15.14,3.84 m -285.82,-3.68 c -1.42,0.08 -1.68,-2.37 -0.16,-2.38 1.41,-0.07 1.68,2.38 0.16,2.38 m 133.22,-2.78 c 5.02,-4.98 11.59,-7.92 18.45,-9.42 -1.57,1.91 -3.09,3.85 -4.43,5.93 1.92,0.71 3.85,1.43 5.77,2.13 -5.69,4.65 -13.39,4.38 -19.79,1.36 m 33.38,1.39 c -2.12,-2.43 -4.47,-4.65 -6.54,-7.13 4.02,-1.59 8.11,-3.03 12.27,-4.22 1.4,3.27 4.1,5.62 7.3,7.06 -4.43,1.15 -8.95,2.16 -13.03,4.29 m -168.48,-5.56 c 1.88,0.43 3.83,0.68 5.61,1.45 0.47,1.47 0.64,3.02 0.88,4.54 -2.4,-1.72 -4.62,-3.69 -6.49,-5.99 m 262.67,5.47 c 0.72,-3.19 1.36,-6.55 3.35,-9.24 3.92,-0.09 7.08,2.52 10.15,4.58 -4.2,2.31 -8.86,3.58 -13.5,4.66 m 149.72,-1.38 c 1.06,-1.39 2.15,-2.77 3.25,-4.13 -0.08,1.27 -0.16,2.55 -0.24,3.82 -0.75,0.08 -2.26,0.23 -3.01,0.31 m -418.51,-3.14 c -1.42,0.08 -1.68,-2.37 -0.16,-2.38 1.41,-0.07 1.68,2.38 0.16,2.38 m 188.37,-0.11 c 2.33,-1.54 4.76,-2.93 7.25,-4.23 0.51,1.28 1.02,2.55 1.54,3.83 -2.9,0.15 -5.94,0.35 -8.79,0.4 m 230.48,0.68 c -0.32,-0.78 -0.97,-2.33 -1.29,-3.1 -1.4,0.42 -2.79,0.85 -4.17,1.27 2.42,-2.19 4.93,-4.29 7.62,-6.15 -0.61,2.69 -1.34,5.35 -2.16,7.98 m 7.5,-3.99 c -1.06,-1.19 0.78,-3.44 2.14,-2.54 1.05,1.2 -0.79,3.44 -2.14,2.54 m -13.09,-1.93 c -1.08,-1.15 0.84,-3.07 2,-2 1.02,1.14 -0.87,3.03 -2,2 m -208.82,-1.61 c 1.43,-2.05 2.87,-4.1 4.31,-6.15 0.88,2.09 1.74,4.18 2.57,6.28 -1.72,-0.03 -5.16,-0.1 -6.88,-0.13 m 13.99,0.07 c 0.9,-2.1 1.82,-4.2 2.78,-6.28 1.46,2.04 2.86,4.12 4.21,6.23 -1.75,0.01 -5.24,0.04 -6.99,0.05 m 225.22,0.16 c 0.35,-1.68 0.7,-3.36 1.06,-5.04 h 1.42 c 0.35,1.68 0.7,3.36 1.06,5.04 -0.88,0 -2.66,0 -3.54,0 m -465.63,-0.86 c -0.3,-1.33 -0.61,-2.66 -0.92,-3.99 2.04,-1.02 3.97,-2.24 5.84,-3.55 0.65,1.5 1.31,3.01 1.97,4.51 -2.3,1.02 -4.59,2.03 -6.89,3.03 m 258.2,-0.54 c -2.44,-22.47 -0.45,-45.05 -0.19,-67.57 0.56,-26.71 5.71,-52.95 10.36,-79.14 -3.91,-0.7 -7.8,-2.65 -11.83,-2.16 -4.09,0.73 -3.45,6.7 -4.22,9.31 3.43,-1.59 6.51,-3.83 9.36,-6.29 -0.04,1.13 -0.1,2.25 -0.18,3.36 0.6,6.16 -9.44,7.01 -11.88,2.19 -6.24,-6.11 -4.85,-15.21 -2.7,-22.77 1.83,1.55 3.59,3.16 5.37,4.76 -0.44,-4.71 -1.83,-9.82 0.77,-14.17 3.74,-7.61 8.36,-15.05 9.41,-23.67 1.58,-9.56 -5.63,-19.18 -15.2,-20.47 -0.21,-0.82 -0.42,-1.65 -0.62,-2.48 3.75,1.42 7.63,2.45 11.63,3 -1.12,-2.36 -2.37,-4.66 -3.56,-6.98 3.12,-1.21 6.19,-2.53 9.33,-3.69 -1.83,2.03 -3.89,3.87 -5.34,6.21 3.04,5.58 9.73,6.19 15.27,4.74 -3.58,4.51 -6.48,9.5 -8.89,14.72 3.51,5.84 -1.45,12.28 -2.42,18.27 0.62,0.41 1.86,1.22 2.49,1.63 6.93,-8.06 7.61,-19.03 12.16,-28.26 -0.25,6.75 -2.61,13.11 -3.2,19.79 0.83,3.78 1.93,7.5 3.48,11.04 2.64,-4.83 2.04,-10.33 1.73,-15.61 1.26,-0.96 3.73,-1.35 3.3,-3.4 -0.02,-6.25 -1.11,-12.45 -1.07,-18.7 3.43,0.03 6.85,0.02 10.29,-0.02 0.04,-0.94 0.13,-2.82 0.18,-3.76 -4.87,-1.49 -9.87,-0.44 -14.58,1.08 6.13,-6.3 15.36,-3.37 22.89,-1.79 -2.5,11.03 -7.63,21.16 -10.8,31.97 -6,19.31 -11.65,38.77 -15.3,58.68 -7.76,43.16 -10.32,87.06 -12.05,130.81 -1.34,-0.2 -2.66,-0.41 -3.99,-0.63 m -234.86,-1 c -0.18,-1.22 -0.36,-2.44 -0.54,-3.66 1.22,0.18 2.44,0.36 3.66,0.54 0.18,1.22 0.36,2.44 0.54,3.66 -1.22,-0.18 -2.44,-0.36 -3.66,-0.54 m 186.86,1.32 c -0.48,-6.28 -1.15,-12.56 -1.16,-18.86 -0.12,-38.05 -3.53,-76.08 -9.58,-113.63 -3.39,-20.8 -9.58,-40.98 -16.04,-60.99 -4.01,-10.09 -8.57,-20.03 -11.15,-30.62 2.82,-0.41 5.57,-0.66 8.41,-1.08 -0.64,1.88 -1.27,3.75 -1.89,5.63 3.68,0.23 7.34,0.2 11.03,0.14 -3.95,5.79 -4.37,12.79 -3.11,19.54 0.76,-0.03 2.27,-0.1 3.02,-0.13 1.07,-4.09 2.16,-8.14 3.17,-12.25 3.8,8.94 4.93,18.83 10.04,27.25 0.84,0.02 2.52,0.06 3.36,0.09 -2.68,-10.63 -4.75,-21.71 -10.31,-31.3 5.64,0.47 11.45,0.65 16.84,-1.35 0.68,0.8 1.36,1.61 2.04,2.4 -3.75,4.64 -8.32,9.8 -7.13,16.28 -0.62,10.91 6.77,19.48 11.68,28.44 2.12,3.57 0.61,7.7 -0.34,11.37 2.22,-1.62 4.51,-3.14 6.88,-4.52 0.51,6.01 1.15,12.1 0.39,18.1 -1.34,5.96 -8.28,8.14 -13.62,8.5 -0.66,-2.74 -1.35,-5.4 -1.88,-8.19 2.18,2 4.33,4.04 6.64,5.9 0.37,-3.58 0.47,-7.3 -0.93,-10.69 -3.67,0.63 -7.38,1.15 -11.11,0.89 1.06,15.78 5.61,31.04 7,46.77 3.76,33.16 3.51,66.61 2.05,99.9 -1.33,0.98 -2.84,1.66 -4.3,2.41 m 56.72,-0.85 c -2.58,-10.68 -0.19,-22.11 0.09,-33.03 -0.27,-3.45 0.68,-8.44 4.74,-9.27 3.51,-1.31 6.75,2.52 6.48,5.87 -0.45,6.9 -2.03,13.69 -2.73,20.56 3.22,1.95 6.66,4.63 10.73,3.21 4.39,-1.82 6.92,-6.23 10.24,-9.44 -1.74,-1.47 -3.47,-2.95 -5.21,-4.41 -0.13,1.88 -0.37,5.63 -0.5,7.51 -2.19,0.31 -4.39,0.62 -6.57,0.92 -0.74,-0.75 -1.48,-1.5 -2.22,-2.26 0.01,-7.94 4.78,-16.84 0.6,-24.37 -3.93,-4.06 -10.23,-1.47 -15.22,-1.56 1.07,-4.37 -0.2,-10.25 3.96,-13.3 7.26,-6.02 14.87,-12.44 18.29,-21.56 4.29,-16.42 13.42,-31.12 23.79,-44.36 9.22,-11.61 22.34,-18.99 32.99,-29.06 6.99,-8.22 15.03,-17.93 13.58,-29.5 -0.75,-16.81 -10.7,-31.02 -19.09,-44.96 -11.83,-17.82 -17.51,-39.49 -16.19,-60.84 3.42,-0.42 6.84,-0.86 10.26,-1.31 0.01,-4.24 0.37,-8.55 1.95,-12.52 0.55,4.05 1.09,8.09 1.64,12.12 1.39,0.05 2.79,0.08 4.19,0.12 0.49,-2.64 1,-5.29 1.66,-7.91 0.26,2.66 0.51,5.32 0.75,7.97 2.29,-0.53 4.65,-0.83 6.88,-1.65 1.26,-2.97 1.61,-6.22 2.4,-9.36 0.22,2.67 0.64,8 0.85,10.67 1.11,-3.54 2.14,-7.1 3.3,-10.63 0.04,3.62 0,7.23 0.04,10.84 1.42,-3.56 2.66,-7.15 4.02,-10.76 0.09,3.8 0.04,7.59 0.27,11.38 0.41,-1.22 1.23,-3.66 1.64,-4.88 1.71,3.14 4.66,5.31 6.56,8.28 1.92,6.4 2.27,13.24 4.72,19.49 7.66,18.97 22.14,34.16 30.01,53.01 5.1,11.71 10.9,23.87 10.14,36.97 -0.68,17.84 -11.02,33.54 -23.02,46.03 -11,11.53 -26.49,17.95 -36.16,30.87 -18.46,20.35 -19.68,50.49 -38.21,70.76 -13.46,14.97 -31.56,27.07 -51.65,30.36 m -106.66,-27.36 c -19.75,-21.76 -25.29,-52.37 -44.57,-74.47 -14.23,-18 -34.62,-30.46 -46.6,-50.33 -5.27,-8.37 -8.97,-17.9 -9.02,-27.91 -0.89,-15.37 5.76,-29.77 12.85,-42.96 7.61,-14.44 19.77,-26.26 25.29,-41.82 4.8,-12.02 3.17,-25.29 3.83,-37.94 1.94,5.51 2.98,11.29 3.64,17.07 0.27,-3.97 0.82,-11.91 1.09,-15.88 1.73,5.14 2.31,10.58 3.29,15.87 0.74,-4.86 1.14,-9.74 1.72,-14.64 0.92,4.87 1.44,9.83 2.17,14.71 0.89,-4.89 1.37,-9.83 2.09,-14.77 0.68,4.85 0.89,9.78 1.33,14.63 1,-2.56 1.98,-5.1 3.01,-7.67 0.33,1.95 0.97,5.84 1.3,7.79 0.7,-4.2 1.26,-8.42 1.9,-12.66 0.65,3.88 1.29,7.75 1.94,11.62 0.44,-2.65 1.33,-7.95 1.77,-10.6 1.02,3.92 1.99,7.88 3.04,11.78 0.42,-2.95 0.82,-5.91 1.19,-8.89 0.4,2.89 0.7,5.99 1.15,8.79 0.79,-2.68 1.34,-4.98 2.17,-7.84 0.69,2.1 1.31,4.29 2,6.34 9.28,1.82 14.04,11.8 13.47,20.59 -2,8.91 -5.2,17.54 -9.16,25.75 -7.69,14.65 -19.2,27.07 -25.67,42.4 -4.98,12.77 -1.54,28.74 9.22,37.54 8.93,7.05 18.55,13.31 26.52,21.51 11.35,11.16 18.86,25.49 25.03,39.97 4.15,10.55 7.91,21.77 15.83,30.2 3.97,4.68 8.99,8.4 12.57,13.42 0.49,3.85 3.12,9.74 -0.81,12.66 -5.91,4.41 -12.63,7.61 -19.55,10.08 2.79,-6.46 7.8,-11.59 11.14,-17.72 -4.86,-5.45 -9.53,-11.07 -13.69,-17.09 -8.62,6.13 -17.62,11.74 -27.12,16.4 2.51,5.27 5.3,10.39 8.24,15.43 1.59,-0.36 3.19,-0.73 4.79,-1.08 -2.28,-2.75 -4.66,-5.56 -5.9,-8.97 2,-2.64 5.04,-4.15 7.86,-5.74 0.44,1.77 1.31,5.31 1.74,7.08 2.32,-0.91 4.64,-1.82 6.97,-2.71 -1.6,-2.23 -3.28,-4.4 -4.9,-6.61 3.52,-1.94 7.02,-3.97 10.66,-5.7 0.72,3.14 1.26,6.32 1.51,9.53 1.6,-0.61 3.19,-1.21 4.8,-1.8 -4.4,10.35 -11.36,19.36 -18.97,27.54 2.06,1.2 4.07,2.61 6.4,3.24 6.71,-3.03 12.85,-7.18 19.6,-10.14 -2.37,6.53 -6.82,11.96 -10.08,18.03 1.88,-0.25 4.52,0.53 5.46,-1.67 3.91,-6.15 7.49,-12.55 12.64,-17.8 0.55,10.68 0.53,21.38 -0.21,32.04 -16.89,-4.84 -33.49,-12.93 -44.97,-26.6 m 73.14,15.37 c 1.19,1.39 2.39,2.77 3.61,4.14 0.95,-2.24 1.94,-4.46 3.02,-6.63 0.24,5.05 -0.41,10.07 -2.41,14.76 -3.21,-3.26 -4.51,-7.78 -4.22,-12.27 m 222.84,8.63 c 0.68,-0.94 2.02,-2.82 2.69,-3.76 1.47,2.01 2.68,4.2 3.75,6.45 -2.19,-0.81 -4.33,-1.7 -6.44,-2.69 M 2.94,-170.81 c -0.81,-4.37 0.22,-8.85 0.29,-13.26 2.82,0.6 5.44,1.28 8.37,1.75 -0.31,-2.47 -0.39,-5.17 -2.06,-7.18 -2.19,0.53 -4.21,1.54 -6.24,2.48 0.16,-3.46 0.46,-10.39 0.61,-13.85 1.85,-1.22 3.88,-2.27 5.39,-3.95 -0.03,-2.33 -0.75,-4.57 -1.33,-6.81 0.7,0.05 2.1,0.15 2.8,0.2 1.03,6.73 1.34,13.54 2.17,20.29 0.41,3.09 2.31,6.08 1.43,9.26 -1.3,5.29 -2.72,10.54 -4.09,15.8 -2.5,-1.41 -5.76,-2.14 -7.34,-4.73 m 30.66,4.95 c -2.32,-5.51 -4.14,-11.21 -6.13,-16.85 3.21,-0.68 6.48,-1.22 9.53,-2.5 -2.15,-2.84 -5.46,-5.37 -5.57,-9.24 -0.39,-5.43 -1.11,-11.09 0.74,-16.35 2.18,5.38 7.49,9.82 6.48,16.24 0.3,8.13 0.46,16.33 -0.7,24.39 -1.25,1.63 -2.86,2.93 -4.35,4.31 m -256.82,-6.51 c 1.05,0.15 3.14,0.44 4.18,0.59 -0.55,1.1 -1.1,2.19 -1.72,3.24 -0.88,-1.23 -1.66,-2.53 -2.46,-3.83 m 469.86,1.9 c 0.02,-0.84 0.07,-2.52 0.09,-3.36 1.72,1.41 3.45,2.82 5.18,4.23 -1.77,-0.28 -3.52,-0.57 -5.27,-0.87 m 0.71,-6.26 c 6.22,-4.35 11.42,-10.03 18.71,-12.85 -0.9,3.33 -1.38,7.05 -3.71,9.74 -1.54,1.07 -3.54,0.21 -5.24,0.22 -0.69,1.99 -1.34,4 -1.94,6.02 1.73,0.5 3.48,0.98 5.23,1.46 0,0.79 0.01,2.38 0.01,3.18 -4.63,-2.08 -9.1,-4.57 -13.06,-7.77 m -470.75,-2.2 c 0.99,0.36 1.99,0.72 2.99,1.09 1,-2.44 1.42,-5.34 3.42,-7.21 3.51,-1.83 7.59,-1.88 11.45,-2.03 -5.34,2.85 -6.83,9.6 -12.26,12.17 -2.91,1.39 -4.14,-2.26 -5.6,-4.02 m 482.34,4.03 c 1.7,-1.54 3.54,-2.91 5.47,-4.17 -0.06,1.45 -0.12,2.89 -0.17,4.34 -1.78,-0.04 -3.55,-0.1 -5.3,-0.17 m -62.83,0.6 c -0.44,-1.86 -1.32,-5.58 -1.76,-7.44 1.94,0.27 3.87,0.56 5.81,0.86 -0.81,2.49 -2.08,4.82 -4.05,6.58 m 41.36,-1.89 c 0.81,-2.04 1.84,-3.99 2.99,-5.86 -0.89,2.01 -1.84,3.99 -2.99,5.86 m -431.88,-2.32 c 0,-1.33 0,-2.66 0,-4 1.33,0 2.67,0 4,0 0,1.34 0,2.67 0,4 -1.33,0 -2.67,0 -4,0 m 27.73,-7.56 c -3.34,0.09 -6.39,1.72 -9.5,2.8 2.91,-2.54 6.49,-4.91 10.53,-4.56 5.22,0.83 9.26,4.75 11.84,9.16 -4.14,-2.72 -7.74,-6.62 -12.87,-7.4 m -22.88,-2.19 c 2.85,2.48 4.75,5.83 5.36,9.58 -3.15,-2.27 -4.83,-5.81 -5.36,-9.58 m 30.88,-8.97 c -4.7,-8.49 -10.08,-16.63 -13.8,-25.62 5.31,5.77 8.74,12.95 12.87,19.55 4.68,7.98 10.1,15.63 13.4,24.33 -5.57,-4.99 -8.56,-12.05 -12.47,-18.26 m -68.55,16.64 c -6.11,-14.25 -11.67,-28.78 -15.18,-43.92 -11.57,-42.72 -9.96,-88.16 -0.14,-131.07 7.68,-30.22 20.51,-59.14 37.31,-85.39 2.54,1.2 5.22,2.18 7.49,3.87 2.39,1.97 2.65,5.68 0.92,8.17 -7.47,12.3 -13.82,25.25 -19.51,38.46 -25.67,58.93 -26.79,127.61 -5.17,187.96 1.78,5.13 4.18,10.22 8.2,14 0.59,-8.69 -5.59,-15.92 -6.07,-24.47 3.97,7.61 6.78,15.77 10.09,23.67 -6.62,1.41 -12.66,4.53 -17.94,8.72 m 21.84,0.1 c 2.09,-3.96 6.28,-5.72 10.23,-7.22 -1.87,-4.69 -3.58,-9.48 -5.92,-13.97 -8.34,-16.08 -11.55,-34.2 -13.91,-51.98 -2.87,-11.98 -1.65,-24.29 -1.82,-36.47 2.1,-22.12 1.94,-44.95 9.78,-66.04 1.99,-5.81 4.81,-11.35 6.21,-17.36 -0.51,-2.49 -2.94,-4.13 -4,-6.42 0.21,-2.43 0.74,-4.9 1.41,-7.26 1.92,2.39 3.41,5.09 4.21,8.06 0.41,0.18 1.21,0.54 1.62,0.72 1.13,-3.22 2.71,-6.39 2.93,-9.85 -1.19,-1.79 -2.94,-3.11 -4.3,-4.76 0.29,-2.47 0.85,-4.98 1.51,-7.39 1.81,2.9 3.26,5.99 4.79,9.03 2.58,-5.99 5.57,-11.78 8.76,-17.48 1.61,-3.44 0.29,-7.43 0.13,-11.07 3,0.14 5.98,0.47 8.92,1.07 -3.56,7.52 -8.32,14.38 -12.17,21.75 -13.96,27.05 -21.82,56.97 -25.01,87.15 -1.98,36.92 1.77,75.07 16.96,109.14 2.03,4.96 4.99,10.64 2.23,15.93 -3.27,3.24 -8.26,3.63 -12.56,4.42 m 63.98,-0.54 c 0.29,-1.87 0.62,-3.73 0.99,-5.59 1.3,2.12 2.64,4.21 3.99,6.29 -1.66,-0.22 -3.33,-0.45 -4.98,-0.7 m 327.94,1.27 c 7.89,-15.69 17.69,-30.34 26.39,-45.59 0.43,0.25 1.3,0.74 1.73,0.99 -6.85,12.07 -14.36,23.75 -20.91,35.99 -1.74,3.35 -4.09,6.43 -7.21,8.61 m 38.93,-0.07 c 0.9,-4.22 3.78,-7.51 6.3,-10.88 -1.73,3.82 -3.73,7.56 -6.3,10.88 m 20.77,-1.88 c -0.61,-5.56 2.84,-10.22 5.19,-14.93 6.71,-12.11 9.6,-25.81 13.72,-38.91 1.9,-16.81 7.08,-33.21 6.63,-50.27 -1.29,-13.72 -0.14,-27.62 -2.53,-41.27 -1.93,-15.97 -7.52,-31.15 -10.36,-46.93 5.28,8.49 6.83,18.54 9.2,28.08 11.69,47.76 6.54,98.97 -11.3,144.56 -2.64,6.98 -5.87,13.82 -10.55,19.67 m -52.11,-3.09 c -1.16,-0.78 0.11,-2.85 1.32,-2.04 1.19,0.8 -0.09,2.91 -1.32,2.04 m 11.74,0.26 c -1.93,-0.44 -1.08,-3.51 0.79,-2.95 1.92,0.4 1.09,3.59 -0.79,2.95 m 4.91,-0.29 c -1.49,-1 0.17,-3.52 1.64,-2.36 1.47,1 -0.18,3.53 -1.64,2.36 m -392.56,0.04 c -0.56,-0.85 -1.69,-2.54 -2.25,-3.39 2.97,-1.6 6.11,-2.85 9.4,-3.64 -2.01,2.7 -4.43,5.05 -7.15,7.03 m 399.42,-4.94 c -0.35,-3.37 3.36,-4.77 5.33,-6.85 1.32,3.57 2.78,7.08 4.07,10.66 -3.16,-0.93 -7.01,-1.2 -9.4,-3.81 m -366,-4.92 c 3.77,-0.42 7.55,-0.48 11.33,-0.61 -1.67,2.98 -3.36,5.95 -5.07,8.9 -2.58,-2.36 -4.56,-5.25 -6.26,-8.29 m 404.6,7.25 c 1.01,-3.93 2.38,-7.74 3.89,-11.5 13.04,-32.42 19.75,-67.63 17.69,-102.61 -0.52,-32.37 -8.71,-64.25 -21.36,-93.93 -4.67,-11.19 -11.46,-21.31 -16.53,-32.29 -0.42,-4.68 5.06,-7.59 7.42,-11.29 10.72,14.2 17.84,30.65 24.86,46.87 12.45,32.67 20.87,67.48 19.28,102.65 -0.96,32.01 -5.87,64.38 -18.81,93.89 -6.57,-0.53 -11.14,5.34 -16.44,8.21 m -56.9,-1.04 c 1.4,-3.04 2.78,-6.08 4.18,-9.13 0.8,0.02 2.4,0.06 3.2,0.08 0.81,2.43 1.47,4.91 1.98,7.43 -3.16,0.56 -6.23,1.08 -9.36,1.62 M 13.58,-212.56 c -1.58,-3.7 -6.74,-3.61 -9.8,-4.89 -0.09,-0.99 -0.16,-1.98 -0.23,-2.98 2.38,-0.88 4.76,-1.78 7.11,-2.77 3.45,5.28 6.87,10.7 8.33,16.94 0.42,5.91 -0.84,11.76 -1.7,17.57 -4.58,-7.12 -1.86,-16.06 -3.71,-23.87 m 11.62,23.69 c -1.37,-8.37 -4.21,-17.71 0.22,-25.67 1.99,-5.33 7.23,-9.39 13.24,-7.58 -0.16,1.67 -0.48,5 -0.64,6.66 -3.61,0.74 -9.12,0.68 -9.93,5.26 -0.49,7.04 1.89,15.25 -2.89,21.33 m 155.75,-4.22 c 1.88,0.16 3.77,0.36 5.66,0.55 -0.11,0.94 -0.32,2.83 -0.43,3.78 -1.85,-1.31 -3.61,-2.75 -5.23,-4.33 m -349.74,2.96 c 0.86,-2.07 1.84,-4.1 2.92,-6.07 1.05,1.05 2.1,2.1 3.15,3.15 -1.97,1.08 -4,2.06 -6.07,2.92 m 409.18,-3.97 c 1.05,-0.86 2.11,-1.73 3.18,-2.6 -0.05,1.51 -0.1,3.02 -0.16,4.52 -1.01,-0.63 -2.02,-1.27 -3.02,-1.92 m -29.64,0.43 c -0.91,-4 4,0.91 0,0 m -417.18,-0.82 c 0.03,-1.39 0.05,-2.79 0.08,-4.18 0.61,0.18 1.84,0.53 2.45,0.71 0.22,1.13 0.44,2.26 0.65,3.39 -0.79,0.02 -2.38,0.06 -3.18,0.08 m 22.11,0.62 c 3.14,-3.22 6.32,-6.4 9.51,-9.59 -1.33,4.68 -4.86,8.2 -9.51,9.59 m 417.79,-0.27 c 1.27,-8.84 5.91,-16.64 8.57,-25.06 18.99,-53.59 15.57,-114.28 -7.82,-165.96 -4.53,-12.65 -13.93,-23.17 -17.07,-36.32 7.27,1.46 8.66,9.39 11.52,15 4.73,8.89 9.03,18.03 12.4,27.53 4.12,11.32 6.41,23.18 10.39,34.54 4.36,14.11 4.06,29.08 6.65,43.53 0.79,3.79 -0.39,7.54 -0.59,11.31 -1.19,14.85 -2.53,29.7 -4.79,44.42 -1.23,7.93 -4.36,15.36 -6.49,23.05 -2.33,10.03 -6.05,20 -12.77,27.96 m 4.65,-1.66 c -1.16,-0.78 0.11,-2.85 1.32,-2.04 1.19,0.8 -0.09,2.91 -1.32,2.04 m -411.33,-2.31 c 2.53,-1.6 5.46,-2.16 8.41,-1.61 -0.47,0.9 -1.39,2.7 -1.85,3.6 -1.64,-0.49 -4.92,-1.49 -6.56,-1.99 m 354.72,-3.07 c 1.71,-1.3 3.66,-2.22 5.59,-3.16 -0.25,3.16 -1.04,6.25 -2.3,9.15 -1.29,-1.87 -2.67,-3.76 -3.29,-5.99 m 31.4,4.49 c -1.17,-1.46 1.35,-3.12 2.36,-1.64 1.16,1.47 -1.37,3.12 -2.36,1.64 m -400.01,-0.11 c -8.62,-14.11 -13.52,-30.02 -16.86,-46.12 -5.99,-23.71 -5,-48.45 -3.64,-72.64 1.89,-25.94 11.39,-50.33 21.04,-74.2 4.64,-8.84 9.94,-17.32 15.14,-25.84 10.16,6.46 21.68,10.76 31.19,18.21 -4.16,10.69 -11.36,20.12 -14.73,31.21 -5.82,13.99 -4.37,30.17 1.22,43.99 6.85,16.06 20.56,27.38 32.79,39.23 9.26,9.31 18.48,18.76 26.04,29.56 -2.22,2.23 -4.13,4.84 -6.75,6.63 -4.15,2.02 -9.02,0.53 -13.43,0.91 -7.32,9.92 -19.75,13.5 -30.73,17.65 -7.1,0 -13.94,-2.7 -20.89,-4 -4.13,4.74 -8.69,9.07 -13.54,13.06 2.09,5.53 4.78,12.25 0.86,17.66 -1.51,2.92 -4.95,3.53 -7.71,4.69 m 377.07,-1.38 c -1.2,-0.85 0,-3.25 1.39,-2.5 1.23,0.86 0.02,3.28 -1.39,2.5 m 30.8,-10.24 c -0.31,-4.23 5.74,-9.09 1.58,-12.79 -3.43,-3.76 -6.43,-8.3 -10.97,-10.82 -5.12,0.02 -10.08,1.8 -15.13,2.41 -4.29,0.89 -8.6,-0.57 -12.68,-1.8 -6.69,-2.38 -13.66,-4.04 -20.12,-6.99 -3.51,-1.55 -4.34,-5.93 -7.41,-7.92 -6.61,-1.74 -13.15,-3.85 -19.88,-5.08 4.44,-7.46 9.53,-14.69 16.49,-20.02 11.76,-9.07 24.56,-17.37 33.65,-29.36 8.82,-11.48 17.05,-24.77 17.11,-39.76 1.31,-21.49 -11.89,-39.58 -19.28,-58.74 8.9,-6.43 19.7,-9.55 28.3,-16.37 9.68,13.28 16.93,28.35 22.54,43.79 22.63,55.81 19.37,121.08 -6.71,175.14 -3.95,-2.62 -9.18,-5.92 -7.49,-11.69 m -2.01,9.74 c -0.53,-1.62 0.03,-2.18 1.66,-1.66 0.51,1.63 -0.04,2.18 -1.66,1.66 m -70.3,-20.91 c 2.75,-6.43 6.32,-12.45 10.19,-18.27 10.15,3.24 20.2,6.79 30.2,10.5 -2.01,5.97 -4.56,11.73 -6.98,17.53 -0.62,0.07 -1.88,0.19 -2.51,0.25 1.18,-3.25 2.48,-6.47 3.6,-9.75 -0.93,-0.38 -1.85,-0.77 -2.77,-1.15 -0.72,1.83 -1.45,3.65 -2.21,5.45 -2.38,-2.17 -4.75,-4.35 -7.2,-6.43 0.36,-1.66 0.71,-3.33 1.05,-5.01 4.29,1.71 8.65,3.31 13.25,3.96 -7.81,-4.98 -16.81,-7.59 -25.22,-11.31 -2.57,4.64 -6.48,8.81 -7.35,14.17 6.77,7.32 17.26,11.04 21.75,20.5 -10.05,-4.65 -17.37,-13.5 -25.8,-20.44 m -278.45,19.22 c 3.76,-8.28 12.38,-12.69 18.91,-18.5 -2.49,-4.37 -5.14,-8.63 -7.69,-12.97 -7.97,2.73 -15.7,6.08 -23.49,9.27 -0.88,-1.12 -1.77,-2.23 -2.65,-3.36 8.74,-4.03 17.71,-7.54 26.36,-11.75 4.17,6.37 7.96,12.97 11.36,19.78 -7.77,5.63 -14.99,11.97 -22.8,17.53 m 337.07,-1.35 c 1.36,-2.62 2.83,-5.19 4.52,-7.62 0.91,2.97 1.55,6.02 1.82,9.11 -2.13,-0.47 -4.23,-0.97 -6.34,-1.49 m 43.54,1.65 c 0.63,-2.45 1.53,-4.83 2.73,-7.07 -0.68,2.45 -1.59,4.82 -2.73,7.07 m -34.89,-3.02 c -0.01,-1.61 -0.01,-3.23 0,-4.84 1.15,0.8 2.3,1.61 3.46,2.42 -1.16,0.81 -2.31,1.62 -3.46,2.42 m 28.34,-1.1 c 1.56,-2.07 3.21,-4.07 4.99,-5.96 0.13,1.62 0.38,4.85 0.5,6.47 -1.83,-0.18 -3.66,-0.35 -5.49,-0.51 m -395.32,-0.48 c -0.91,-4 4,0.91 0,0 m 306.73,-15.94 c 1.74,-3.53 3.54,-7.02 5.35,-10.53 2.84,1.22 5.63,2.54 8.33,4.05 -0.46,0.67 -1.37,2.01 -1.83,2.68 -1.44,-0.71 -2.88,-1.42 -4.3,-2.13 -0.76,3.25 -1.94,7.62 1.58,9.7 4.12,1.62 8.44,2.69 12.49,4.5 -1.54,1.2 -3.1,2.37 -4.65,3.55 1.64,0.59 3.3,1.14 4.96,1.68 -0.46,1.05 -0.92,2.1 -1.36,3.15 -7.63,-4.53 -14.43,-10.28 -20.57,-16.65 m -368.01,14.07 c -0.24,-1.99 -0.46,-3.98 -0.63,-5.97 2.59,1.64 4.49,4.05 5.69,6.86 -1.69,-0.28 -3.38,-0.58 -5.06,-0.89 m 72.28,-4.09 c 3.84,-0.55 7.43,1 10.94,2.31 -0.69,-2.33 -1.43,-4.65 -2.13,-6.98 3.17,0.42 6.27,1.22 9.36,2.03 -2.72,2.76 -5.51,5.47 -8.6,7.8 -3.68,-0.53 -6.43,-3.45 -9.57,-5.16 m 334.57,0.49 c 1.19,-0.44 2.38,-0.88 3.58,-1.32 -0.49,1.44 -0.99,2.88 -1.5,4.3 -0.71,-0.99 -1.4,-1.98 -2.08,-2.98 m -341.54,0.42 c -1.79,-0.42 -0.91,-3.25 0.79,-2.75 1.8,0.39 0.9,3.27 -0.79,2.75 m 361.65,0.17 c 0.21,-1.19 0.43,-2.37 0.67,-3.56 0.49,0 1.49,0 1.98,0 0.22,1.19 0.45,2.37 0.67,3.56 -0.83,0 -2.49,0 -3.32,0 m -355.68,-1.88 c 0.04,-3.02 0.03,-6.04 -0.04,-9.06 0.69,0.01 2.07,0.04 2.76,0.06 0.37,2.58 0.8,5.16 1.23,7.73 -1.32,0.43 -2.64,0.85 -3.95,1.27 M 19.06,-226.6 c 0.97,0.03 2.92,0.08 3.89,0.11 0.63,5.44 0.27,11.04 -1.56,16.23 -4.61,-4.31 -3.11,-10.81 -2.33,-16.34 m 174.87,14.2 c -0.74,-0.8 -1.49,-1.59 -2.23,-2.39 0.35,-1.55 0.7,-3.11 1.04,-4.66 0.69,-0.01 2.07,-0.01 2.76,-0.02 0.73,1.31 1.44,2.62 2.17,3.92 -1.25,1.06 -2.49,2.11 -3.74,3.15 m -358.15,-8.97 c 3.01,-0.47 5.99,-0.84 9.02,-1.27 -1.34,2.95 -2.69,5.89 -4.05,8.83 -1.91,-2.34 -3.54,-4.9 -4.97,-7.56 m 416.41,-2.15 c 0.92,0.01 2.75,0.03 3.67,0.03 -0.6,3.3 -1.15,6.58 -1.82,9.85 -2.71,-2.73 -3.19,-6.36 -1.85,-9.88 m -373.59,8.56 c 0.27,-1.65 0.58,-3.29 0.9,-4.93 1.54,0.56 3.08,1.14 4.61,1.73 -1.8,1.14 -3.65,2.18 -5.51,3.2 m 338.3,-3.92 c 1.19,-0.51 2.39,-1.03 3.59,-1.55 0.78,0.94 1.56,1.87 2.36,2.79 -0.48,0.72 -1.42,2.16 -1.89,2.88 -1.48,-1.25 -2.84,-2.62 -4.06,-4.12 m -433.4,1.45 c 0.05,-0.72 0.15,-2.16 0.2,-2.89 1.04,-0.41 2.07,-0.83 3.11,-1.26 0.33,1.76 0.64,3.52 0.95,5.27 -1.43,-0.36 -2.84,-0.73 -4.26,-1.12 m 83.02,1.16 c -0.69,-2.26 -1.39,-4.53 -2.11,-6.79 4.77,-1.57 9.41,-3.49 14.25,-4.85 -0.38,1.26 -0.77,2.5 -1.16,3.75 -3.64,0.15 -7.17,1.11 -10.39,2.8 1.48,0.4 2.96,0.79 4.45,1.18 -0.01,0.65 -0.03,1.96 -0.04,2.62 -1.67,0.44 -3.33,0.87 -5,1.29 m 37.87,-12.84 c -0.75,3.74 -1.89,7.41 -3.04,11.04 -0.24,-4 -0.21,-8.19 3.04,-11.04 m 292.98,8.17 c 0.96,-3.26 4.82,-2.9 7.5,-3.3 -0.42,2.18 -0.84,4.35 -1.31,6.51 -2.11,-0.97 -4.24,-1.93 -6.19,-3.21 m 50.23,1.83 c 0.86,-2.04 1.87,-4 3.01,-5.9 -0.85,2.05 -1.81,4.04 -3.01,5.9 m -476.66,-25.72 c -6.03,-35.3 -4.58,-71.86 3.64,-106.69 6.08,-26.2 17.77,-50.69 31.23,-73.84 1,-2.1 3.37,-2.6 5.34,-3.35 -1.09,5.74 -4.45,10.49 -7.25,15.44 -5.49,9.4 -9.03,19.74 -13.46,29.64 1.13,-0.6 2.27,-1.2 3.41,-1.8 -0.5,2.43 -1.05,4.86 -1.6,7.27 -0.78,-1.01 -1.55,-2.04 -2.3,-3.08 -13.05,26.39 -17.72,55.94 -19.73,85.04 0.28,15.2 0.2,30.49 2.58,45.54 2.35,9.86 4.82,19.79 5.26,29.95 -4.27,-7.31 -5.29,-15.99 -7.12,-24.12 m 366.91,14.57 c 2.95,2.24 4.62,5.56 4.95,9.23 -1.98,-2.89 -3.59,-6.01 -4.95,-9.23 m -243.89,2.12 5.96,-0.18 c -0.89,1.74 -1.8,3.48 -2.71,5.22 -1.11,-1.66 -2.2,-3.34 -3.25,-5.04 m -59.34,3.58 c -0.38,-1.68 -0.77,-3.36 -1.14,-5.04 1.47,1.64 2.97,3.26 4.47,4.88 -0.83,0.04 -2.49,0.12 -3.33,0.16 m 192.41,-8.75 c 4.25,-2.02 8.5,-4.06 12.93,-5.68 0.25,4.72 -1.87,7.87 -6.59,8.89 -0.15,1.61 -0.27,3.22 -0.38,4.82 -2.02,-2.66 -4.02,-5.32 -5.96,-8.03 m -62.23,-31.27 c -0.43,-1.87 1.43,-2.98 2.62,-4.05 4.91,-3.53 10.32,-6.3 15.63,-9.2 2.9,9.85 3.5,20.17 4.68,30.31 0.64,7.23 1.78,14.52 0.97,21.78 -12.71,-9.27 -20.05,-23.94 -23.9,-38.84 m 36.98,27.93 c 4.24,0.58 8.38,1.73 12.42,3.13 -1.14,2.53 -2.37,5.01 -3.69,7.45 -2.94,-3.5 -6.25,-6.71 -8.73,-10.58 m 141.95,10.06 c -0.43,-1.29 -0.86,-2.59 -1.28,-3.89 1.79,0.01 3.59,0.02 5.4,0.03 -0.41,1.34 -0.81,2.67 -1.2,4 -0.73,-0.03 -2.19,-0.1 -2.92,-0.14 m -363.81,-7.77 c 1.61,0.59 3.22,1.19 4.82,1.8 -0.27,1.6 -0.55,3.2 -0.82,4.8 -1.47,-2.11 -2.79,-4.32 -4,-6.6 m 115.93,4.13 c -1.13,-3.27 -0.28,-6.58 1.5,-9.44 1.33,2.86 2.34,5.96 4.62,8.26 -2.04,0.39 -4.08,0.8 -6.12,1.18 m 358.84,-3.7 c 1.21,-2.65 2.94,-5.02 4.58,-7.44 0.01,3.79 -0.25,7.57 -0.49,11.34 -1.4,-1.27 -2.84,-2.49 -4.09,-3.9 m -117.39,0.27 c 3.14,-0.84 6.31,-1.64 9.45,-2.54 -0.08,0.76 -0.22,2.28 -0.29,3.04 -3.06,0.03 -6.12,-0.13 -9.16,-0.5 m -249.43,-4.47 c 1.63,-0.16 3.26,-0.33 4.89,-0.5 -0.2,1.94 -0.43,3.88 -0.66,5.81 -1.56,-1.65 -2.97,-3.43 -4.23,-5.31 m 16.51,-9.71 c 3.78,4.48 6.65,9.65 9.01,15 -3.93,-4.35 -7.23,-9.38 -9.01,-15 m 150.64,14.76 c -0.21,-3.24 -0.43,-6.43 -0.54,-9.69 0.73,0.24 2.18,0.71 2.9,0.95 -0.77,2.92 -1.54,5.85 -2.36,8.74 m 76.43,0 c 1.37,-6.08 5.12,-11.17 8.97,-15.91 -2.06,5.78 -5.1,11.15 -8.97,15.91 m 130.38,-2.11 c -1.38,-0.93 -0.01,-3.57 1.52,-2.64 1.36,0.94 0,3.58 -1.52,2.64 M 5.84,-239.78 c -2.56,-3.11 -4.37,-7.23 -2.95,-11.34 2.04,-6.25 12.69,-7.11 15.51,-1.07 1.77,5.21 -2.67,8.35 -7.14,8.81 1.03,-3.26 1.88,-6.58 2.19,-10 -3.76,0.45 -10.21,2.36 -7.28,7.25 2.47,6.72 10.11,2.51 15.3,2.62 4.21,0.08 10.06,3.59 12.79,-1.36 3.36,-4.81 -3.37,-9.02 -7.74,-8.45 0.16,3.96 2.82,6.86 5.4,9.56 -2.99,0.04 -6.58,-0.05 -8.16,-3.09 -2.42,-7.88 8.34,-11.66 13.37,-7.23 2.6,3.67 3.31,9.52 -0.31,12.79 -8.58,7.19 -21.62,7.21 -30.98,1.51 m 144.02,4.12 c -0.75,-1.64 -1.51,-3.28 -2.26,-4.92 1.48,0.22 4.46,0.68 5.95,0.91 -0.42,1.36 -0.83,2.73 -1.22,4.09 -0.62,-0.02 -1.85,-0.06 -2.47,-0.08 m -262.23,-5.44 c -0.4,-1.28 -0.79,-2.56 -1.16,-3.85 3.82,0.69 7.61,1.54 11.44,2.19 -3.41,0.64 -6.85,1.2 -10.28,1.66 m -108.67,-1.88 c -0.13,-1.43 -0.26,-2.86 -0.41,-4.3 1.07,-0.43 2.13,-0.87 3.2,-1.31 0.22,1.56 0.64,4.69 0.86,6.26 -1.22,-0.21 -2.44,-0.43 -3.65,-0.65 m 367.22,-0.98 c 2.76,-0.81 5.46,-1.38 8.31,-2.01 0.02,0.93 0.06,2.78 0.07,3.71 -2.83,-0.53 -5.59,-1.08 -8.38,-1.7 m -362.42,-0.22 c -1.42,-0.84 -0.29,-3.65 1.32,-2.63 1.46,0.83 0.27,3.57 -1.32,2.63 m 276.26,0.98 c -0.37,-3.11 -1.06,-6.28 -0.59,-9.42 0.97,-3.48 3.59,-6.16 6.03,-8.7 -0.43,4.33 -1.74,8.43 -4.02,12.1 1.02,1.65 2.09,3.27 3.15,4.9 -1.52,0.38 -3.05,0.76 -4.57,1.12 m 201.36,-2.87 c -0.92,-2.4 -2.23,-4.73 -2.52,-7.33 0.66,-1.9 1.94,-3.5 3.11,-5.12 -0.14,4.17 -0.26,8.31 -0.59,12.45 m -190.45,-0.92 c 0.47,-3.16 0.94,-6.4 2.5,-9.25 -0.23,3.22 -1.05,6.36 -2.5,9.25 m 185.04,-5.15 c 0.12,-2.52 0.26,-5.05 0.42,-7.58 0.63,0.38 1.88,1.14 2.5,1.52 -0.98,2.03 -1.94,4.05 -2.92,6.06 m -234.09,-0.88 c -1.46,-1.24 -4.38,-3.73 -5.84,-4.98 1.48,-2.45 3.03,-4.86 4.64,-7.23 2.49,1.82 5.05,3.6 7.17,5.87 -1.79,2.3 -3.97,4.25 -5.97,6.34 M -226.51,-263 c 0.25,2.94 0.3,5.99 0.39,8.91 -0.29,-2.98 -0.37,-5.89 -0.39,-8.91 m 1.43,1.49 c 1.98,0.22 3.97,0.46 5.95,0.71 -0.41,1.73 -1.22,5.19 -1.62,6.92 -1.61,-2.45 -3.06,-4.99 -4.33,-7.63 m 225.1,0.43 c 1.7,0.75 3.42,1.49 5,2.5 -0.8,0.88 -1.63,1.71 -2.5,2.5 -1.02,-1.57 -1.76,-3.29 -2.5,-5 m 38.84,4.54 c -1.92,-0.44 -1.08,-3.51 0.79,-2.95 1.93,0.4 1.09,3.59 -0.79,2.95 m 29.22,-2.43 c 1.98,-8.52 9.14,-14.17 16.47,-18.22 -2.88,6.97 -6.25,13.72 -9.71,20.41 -2.26,-0.74 -4.51,-1.47 -6.76,-2.19 m -11.29,1.38 c 0.28,-3.79 0.75,-7.54 1.47,-11.27 1.01,-5.38 5.24,-9.31 8.17,-13.67 0.93,0 2.8,0 3.73,0 1.21,10.11 -6.18,18.74 -13.37,24.94 M 1.57,-266.5 c -3.79,-5.65 -0.51,-12.18 0.96,-18.03 1.6,0.27 3.21,0.56 4.81,0.84 0.39,-3.64 0.81,-7.27 1.25,-10.92 1.75,0.65 3.49,1.31 5.23,1.97 0.16,-2.28 0.3,-4.56 0.49,-6.84 1.54,1.7 4.36,3.18 4,5.83 -1,6.97 -6.08,12.54 -11.89,16.13 -3.63,1.95 -2.76,7.01 -3.7,10.21 2.47,1.05 4.91,2.29 7.59,2.73 1.34,-1.69 2.22,-3.67 3.18,-5.6 -1.97,-0.57 -5.89,-1.71 -7.86,-2.28 1.34,-1.28 2.31,-3.31 4.19,-3.82 7.54,-2.82 12.62,10.58 5.47,13.49 -4.65,2.03 -12.24,2.46 -13.72,-3.71 m 24.74,2.28 c -3.56,-3.09 -1.66,-8.3 -1.35,-12.4 1.93,0.02 5.77,0.06 7.7,0.08 0.71,1.38 1.43,2.76 2.16,4.14 -2.86,1.2 -5.66,2.33 -8.37,3.8 2.18,1.55 4.44,5.19 7.5,3.52 4.57,-1.33 4.98,-7.64 1.98,-10.81 -4.99,-6.55 -14.83,-13.5 -10.89,-22.91 0.8,0.22 2.41,0.67 3.21,0.89 -0.11,1.23 -0.23,2.44 -0.34,3.66 1.85,0.32 3.76,0.47 5.53,1.13 0.91,3.11 0.53,6.4 0.69,9.6 1.51,-0.74 3.02,-1.49 4.55,-2.23 2.08,3.17 4.43,6.42 4.9,10.29 0.38,4.78 -1.89,9.24 -3.47,13.59 -4.48,-1.06 -9.72,0.07 -13.8,-2.35 m 236.61,-12.33 c 3.03,3.65 2.92,8.61 2.24,13.07 -3.72,-3.52 -3.19,-8.46 -2.24,-13.07 m -489.01,3.21 c 1.99,0.33 3.97,0.68 5.96,1.01 -0.64,1.86 -1.31,3.71 -1.97,5.55 -1.48,-2.09 -2.78,-4.3 -3.99,-6.56 m 493.95,4.73 c -1.09,-0.86 -1.09,-2.93 0,-3.8 1.73,-0.02 1.73,3.83 0,3.8 m -496.77,-4.72 c 0.67,-0.06 2,-0.17 2.66,-0.23 -0.2,1.83 -0.41,3.65 -0.63,5.47 -0.71,-1.73 -1.38,-3.48 -2.03,-5.24 m 9.65,3.42 c -0.86,-3.98 3.99,0.82 0,0 m 478.18,0.62 c -0.49,-2.13 -0.98,-4.26 -1.45,-6.4 1.09,0.43 2.18,0.86 3.28,1.3 -0.61,1.7 -1.22,3.4 -1.83,5.1 m -295.64,-1.1 c 5.41,-4.87 11.69,-8.92 18.6,-11.28 -5.5,4.77 -11.94,8.39 -18.6,11.28 m -2.82,-4.92 c 6.61,-4.95 13.37,-10.36 21.54,-12.42 -6.07,5.77 -13.73,9.59 -21.54,12.42 m 56.79,-1.89 c -2.13,-3.45 2.19,-7.48 2.95,-10.83 2.35,2.05 4.67,4.12 7.02,6.18 -2.94,2.37 -6.3,9.16 -9.97,4.65 m -59.36,-1.9 c -9.74,-15.04 -20.5,-30.08 -35.93,-39.79 -11.12,-6.56 -21.24,-17.83 -20.4,-31.58 -0.19,-6.59 2.68,-12.62 5.83,-18.2 20.42,9.58 38.39,23.31 57.84,34.55 3.56,2.29 8,4.38 9.06,8.91 3.22,10.72 4.74,21.88 7.34,32.75 -7.67,4.87 -15.48,9.54 -23.74,13.36 m 101.29,-0.92 c 3.29,-7.21 10,-12.02 14.23,-18.62 8.43,-11.01 12.35,-24.73 13.07,-38.45 10.92,9.62 15.97,23.65 18.57,37.58 -1.4,0.38 -2.78,0.77 -4.17,1.15 -2.19,-10.03 -4.99,-20 -9.84,-29.11 -4.62,8.5 -6.95,18.07 -12.1,26.3 -5.35,8.06 -10.92,16.54 -19.76,21.15 m 21.39,-0.04 c -1.33,-5.2 -3.62,-10.49 -2.56,-15.96 2.01,1.96 3.74,4.28 6.1,5.85 2.09,0.46 4.24,0.11 6.36,0.05 -1.65,-3.52 -3.92,-6.66 -6.18,-9.81 3.5,-0.6 8.16,-0.68 9,3.74 1.31,7.93 -7.26,12.47 -12.72,16.13 m -305.03,-1.46 c -0.38,-2.07 -0.75,-4.14 -1.09,-6.22 1.76,0.74 3.51,1.49 5.26,2.25 -0.41,1.3 -0.82,2.6 -1.23,3.9 -0.74,0.02 -2.21,0.05 -2.94,0.07 m 296.12,-6.81 c 1.03,-0.07 3.11,-0.21 4.14,-0.28 -0.34,2.01 -1.03,6.04 -1.37,8.05 -1.2,-2.49 -2.15,-5.08 -2.77,-7.77 m -298.9,5.02 c -1.27,-0.45 -0.76,-2.85 0.66,-2.4 1.27,0.46 0.76,2.86 -0.66,2.4 m 489.38,-0.31 c -0.01,-3.32 0.28,-6.63 0.89,-9.9 1.88,2.63 3.14,5.6 4.24,8.61 -1.72,0.43 -3.43,0.85 -5.13,1.29 M 35.89,-297.29 c 3.87,-0.29 7.74,-0.62 11.63,-0.73 -1.03,4.72 -2.03,9.43 -3.16,14.12 -3.24,-4.18 -6.22,-8.6 -8.47,-13.39 m -38.02,11.88 c -1.29,-3.94 -1.87,-8.06 -2.74,-12.1 3.13,0.09 6.27,0.17 9.41,0.27 -2.17,3.54 -2.22,10.45 -6.67,11.83 m 65.2,-7.74 c -0.09,-8.67 2.33,-17.05 4.34,-25.41 1.28,-4.02 1.73,-8.5 4.09,-12.11 3.07,-2.86 6.99,-4.72 10.89,-6.23 0.6,16.23 -5.17,34.5 -19.32,43.75 m -289.1,-9.92 c 1.79,0.68 3.6,1.32 5.32,2.17 -0.27,2.64 -0.78,5.19 -1.54,7.7 -1.96,-2.98 -3.26,-6.3 -3.78,-9.87 m -2.21,6.98 c -0.91,-0.65 -0.77,-2.68 0.59,-2.62 1.8,0.27 1.25,3.87 -0.59,2.62 m 241.08,-7.72 c 1.56,-8.83 1.13,-17.8 0.02,-26.65 1.15,0.59 3.44,1.79 4.58,2.38 3.17,8.47 1.71,17.9 2.28,26.75 -2.29,-0.84 -4.58,-1.68 -6.88,-2.48 m 71.75,-1.39 c 2.04,-5.1 3.98,-10.28 6.82,-15.02 2.44,6 4.08,12.29 5.54,18.59 -4.04,-1.43 -8.16,-2.67 -12.36,-3.57 m -62.02,3.49 c 0.15,-9.85 -1.09,-20.28 3.21,-29.5 0.66,0.48 1.98,1.43 2.64,1.9 -0.63,8.54 0.08,17.08 0.7,25.58 -2.06,1.05 -4.24,1.72 -6.55,2.02 m 77.93,-21.75 c -3.59,-6.26 -8.03,-11.97 -12.25,-17.81 14.89,-10.11 30.35,-19.37 46.37,-27.57 3.51,5.91 7.64,12.08 6.96,19.33 -0.02,5.74 0.13,11.93 -2.99,17 -6.41,12.92 -19.51,20.07 -30.47,28.56 -2.59,-6.48 -4.26,-13.35 -7.62,-19.51 m 158.36,12.39 c 0.73,2.32 1.15,4.72 1.46,7.12 -0.73,-2.32 -1.17,-4.71 -1.46,-7.12 m 3.57,4.5 c 0.2,-1.13 0.42,-2.26 0.65,-3.39 0.61,-0.18 1.84,-0.53 2.45,-0.71 0.02,1.4 0.04,2.79 0.08,4.18 -0.8,-0.02 -2.39,-0.06 -3.18,-0.08 m -486.23,-0.96 c 0.18,-3.57 0.35,-7.14 0.75,-10.7 2.25,3.12 2.76,6.93 3.3,10.64 -1.01,0.02 -3.04,0.04 -4.05,0.06 m 484.72,-22.04 c 2.99,3.15 4.45,7.31 4.95,11.56 -3.21,-2.97 -6.58,-6.46 -4.95,-11.56 m -3.16,8.26 c -1.28,-0.45 -0.77,-2.85 0.66,-2.4 1.26,0.46 0.75,2.86 -0.66,2.4 m -482.7,0.22 c -0.22,-1.82 -0.43,-3.64 -0.63,-5.47 0.66,0.06 1.99,0.17 2.66,0.23 -0.65,1.76 -1.32,3.51 -2.03,5.24 m 1.86,-5.14 c 1.85,-0.29 3.7,-0.59 5.56,-0.86 -0.75,2.15 -1.56,4.29 -2.39,6.41 -1.24,-1.74 -2.27,-3.61 -3.17,-5.55 m 479.66,0.72 c 0,-1.33 0,-2.66 0,-4 0.51,0 1.51,0 2.02,0 -0.01,1.34 -0.01,2.67 0,4 -0.51,0 -1.51,0 -2.02,0 m 9.13,-1.54 c -2.3,-3.42 3.94,-0.76 0,0 m -244.86,-3.06 c -2.55,-5.29 -4.72,-10.76 -6.62,-16.32 4.2,0 8.4,0 12.6,0 -1.91,5.47 -3.88,10.93 -5.98,16.32 m -241.55,-5.6 c 0.58,-2.51 1.19,-5.03 1.82,-7.54 1.68,2.85 2.35,6.11 1.62,9.37 -0.86,-0.46 -2.58,-1.37 -3.44,-1.83 m 222.33,-7.83 c -5.3,-7.45 -9.48,-17.79 -4.64,-26.6 3.2,-7.24 14.6,-8.17 19.26,-2.03 1.87,3.75 1.58,8.29 0.92,12.32 -3.04,4.57 -10.52,3.95 -13.46,-0.58 3.34,-0.65 6.92,-0.55 10.02,-2.12 0.8,-5.94 -5.05,-9.35 -10.4,-9.25 -1.71,4.08 -5.29,8.02 -3.35,12.82 1.97,4.45 7.31,7.22 12.1,5.6 3.81,-0.4 7.48,-3.71 11.34,-1.85 3.56,1.31 7.37,3.45 11.22,1.88 5.44,-1.44 7.68,-8.4 5.04,-13.21 -1.71,-4.21 -8.45,-4.34 -10.94,-0.77 -1.84,1.94 -0.16,4.72 0.19,6.95 2.83,-0.29 5.66,-0.59 8.5,-0.77 -1.69,1.76 -3.1,4.52 -5.82,4.68 -4.65,1.99 -8.19,-2.63 -7.77,-6.65 0.14,-3.58 -0.93,-8.23 2.46,-10.67 4.65,-3.45 12.74,-2.3 15.23,3.32 5.44,7.56 2.47,17.7 -1.97,24.97 -2.55,5.39 -7.62,9.19 -13.32,10.69 1.51,-5.48 3.82,-10.68 5.72,-16.03 -7.56,0.48 -15.13,0.75 -22.71,0.57 1.92,5.41 4.31,10.66 5.7,16.25 -4.72,-2.72 -10.32,-4.67 -13.32,-9.52 m -224.88,7.21 c -1.29,-0.75 -0.3,-3.35 1.18,-2.49 1.3,0.74 0.25,3.25 -1.18,2.49 m 183.77,-4.09 c -12.3,-7.73 -24.44,-15.73 -37.11,-22.86 -4.66,-2.6 -8.89,-5.87 -13.06,-9.18 10.4,4.6 20.06,10.64 29.89,16.32 10.42,6.62 21.25,12.75 30.62,20.85 -3.65,-1.27 -7.1,-3.03 -10.34,-5.13 m 297.7,2.7 c -0.03,-3.2 -0.22,-6.28 -0.09,-9.54 1.81,2.54 3.47,5.18 4.94,7.93 -1.63,0.52 -3.25,1.06 -4.85,1.61 m -318.69,-22.73 c -8.89,-5.58 -19.03,-9.59 -26.51,-17.14 9.68,3.05 17.69,9.43 26.55,14.15 9.71,5.93 20.39,10.78 28.21,19.29 -9.99,-4.37 -18.74,-11.03 -28.25,-16.3 m 136.75,15.89 c 8.79,-7.35 19.09,-12.6 28.93,-18.38 8.01,-4.43 15.66,-9.58 23.98,-13.44 -7.1,7.55 -16.96,11.62 -25.82,16.67 -9.2,4.77 -17.48,11.18 -27.09,15.15 m 177.71,-0.1 c -0.44,-1.39 0.04,-1.88 1.45,-1.45 0.43,1.41 -0.05,1.89 -1.45,1.45 m -470.46,-3.8 c 0.22,-1.53 0.67,-4.6 0.9,-6.13 1.09,0.46 2.17,0.92 3.26,1.37 -0.37,1.55 -0.76,3.08 -1.14,4.62 -0.76,0.03 -2.27,0.1 -3.02,0.14 m -2.61,-0.36 c 0.05,-2.84 0.37,-5.69 1.34,-8.38 -0.05,2.85 -0.37,5.69 -1.34,8.38 m 297.12,-2.22 c 2.82,-15.84 10.97,-30.05 16,-45.2 -12.94,-3.12 -26.11,-4.97 -39.37,-6.03 0.22,3.38 0.49,6.72 0.56,10.1 -0.92,-3.36 -1.62,-6.75 -2.2,-10.2 -9.67,-0.92 -19.39,-1.18 -29.09,-1.14 -1.09,3.08 -2.2,6.14 -3.31,9.19 0.56,-3.08 1.19,-6.15 1.88,-9.21 -13.09,-0.11 -26.2,0.03 -39.23,1.43 -0.8,2.99 -1.55,5.93 -2.44,8.87 0.12,-3.07 0.3,-6.09 0.51,-9.17 -11.06,1.24 -22.18,2.1 -33.17,3.95 5.3,15.48 13.1,30.12 16.89,46.1 -16.81,-8.79 -33.01,-18.68 -49.13,-28.67 4.24,-9.17 10.43,-17.3 14.58,-26.53 3.72,-7.57 6.05,-15.69 8.57,-23.71 9.36,6.16 15.42,16.26 24.82,22.29 13.8,0.61 27.87,1.72 41.66,0.3 7.83,0.07 6.6,-9.48 7.87,-14.47 2.36,-0.22 7.08,-0.68 9.44,-0.91 0.1,-5.1 -0.02,-10.59 3.61,-14.63 5.57,7.54 7.01,17.19 12.41,24.83 2.46,2.52 6.94,0.71 9.79,1.98 4.23,-7.41 5.49,-16.27 10.14,-23.39 13.25,-0.2 26.52,1.14 39.8,0.8 1.11,-6.3 0.62,-13.75 6.43,-17.88 1.51,11.66 1.81,23.54 5.73,34.75 3.36,13.5 11.88,24.75 18.19,36.91 -16.41,10.82 -33.7,20.25 -50.94,29.64 m 171.04,-13.14 c 1.41,3.35 2.15,6.94 2.25,10.58 -1.97,-3.15 -2.85,-6.81 -2.25,-10.58 m 4.02,4.21 c -0.19,-1.8 0.13,-3.6 0.33,-5.4 1.98,2.83 3.51,5.94 4.63,9.21 -1.71,-1.19 -3.52,-2.28 -4.96,-3.81 m -466.03,-3.9 c 0.88,-2.47 1.85,-4.92 2.9,-7.33 1.91,2.94 2.65,6.39 0.5,9.42 -0.85,-0.52 -2.55,-1.57 -3.4,-2.09 m -2.01,0.91 c 0.4,-2.77 1,-5.67 2.04,-8.32 -0.38,2.84 -1.06,5.63 -2.04,8.32 m 226.95,-16.7 c 2.81,-1.09 5.41,-2.94 8.42,-3.47 2.8,0.96 5.33,2.58 8,3.82 -2.63,2.6 -5.43,5.05 -8.16,7.52 -2.85,-2.52 -5.56,-5.19 -8.26,-7.87 m 231.82,0.59 c 1.17,2.18 2.11,4.49 2.85,6.86 -1.12,-2.22 -2.08,-4.5 -2.85,-6.86 m 3.7,3.48 c 0.21,-1.57 0.44,-3.15 0.68,-4.73 1.97,2.32 3.66,4.86 5.15,7.51 -1.94,-0.93 -3.89,-1.86 -5.83,-2.78 m 4.09,-6.56 c 2,2.31 3.38,5.07 4.23,7.99 -1.8,-2.44 -3.25,-5.12 -4.23,-7.99 m -1.83,-15.75 c 4.14,5.86 6.12,12.84 7.88,19.71 -4.31,-5.78 -6.34,-12.77 -7.88,-19.71 m -197.52,14.67 c 0.07,-1.5 2.13,-2.12 2.99,-3.23 0.01,1.97 0.01,3.94 0,5.9 -1.02,-0.86 -2.07,-1.7 -2.99,-2.67 m -81.09,-5.56 c 3.55,1.42 6.81,3.44 10.1,5.38 -4.32,0.79 -7.32,-2.69 -10.1,-5.38 m 14.29,1.12 c 2.09,0.82 4.17,1.64 6.26,2.44 -1.14,1.1 -2.29,2.19 -3.43,3.27 -0.96,-1.89 -1.89,-3.8 -2.83,-5.71 m 10.78,-2.21 c 2.63,0.96 5.2,2.06 7.72,3.27 -1.21,1.25 -2.42,2.49 -3.64,3.71 -1.42,-2.28 -2.8,-4.61 -4.08,-6.98 m 31.78,3.78 c 1.03,-0.83 2.15,-1.55 3.25,-2.3 -0.44,1.87 -0.91,3.73 -1.38,5.59 -0.65,-1.08 -1.36,-2.13 -1.87,-3.29 m -17.3,2.01 c 0,-1.61 0,-3.22 0,-4.84 1.15,0.81 2.31,1.62 3.46,2.42 -1.15,0.82 -2.31,1.62 -3.46,2.42 m 8.15,-5.83 c 2.07,-1.24 4.12,-2.17 6.37,-3.19 -1.27,1.98 -2.43,4.02 -3.58,6.07 -0.94,-0.96 -1.87,-1.91 -2.79,-2.88 m 43.85,1.51 c -1.66,0.1 -2.01,-2.63 -0.11,-2.37 1.66,-0.13 1.99,2.66 0.11,2.37 m -103.6,-1.22 c 0.14,-0.32 0.42,-0.97 0.56,-1.29 2.59,-0.61 0.84,3.48 -0.56,1.29 m 279.65,-0.68 c -1.29,-0.34 -1.92,-2.35 -0.88,-3.28 1.73,-0.65 2.79,3.05 0.88,3.28 m -274.52,-0.5 c 2.5,-0.75 5.06,-1.26 7.65,-1.63 -2.53,0.66 -5.08,1.21 -7.65,1.63 m 8.98,0.01 c 3.19,-0.74 6.4,-1.13 9.68,-1.5 -3.23,0.62 -6.43,1.17 -9.68,1.5 m 15.5,0.09 c -1.5,0.37 -3.29,-1.86 -0.98,-2.13 2.4,-1.12 4.27,2.28 0.98,2.13 m 68.28,0.41 c 0.91,-2.46 1.67,-4.9 2.55,-7.41 -0.03,1.76 -0.09,5.29 -0.12,7.05 -0.61,0.09 -1.82,0.27 -2.43,0.36 m 7.83,0.1 c 0.28,-2.9 0.74,-5.79 1.28,-8.66 -0.38,2.95 -0.7,5.78 -1.28,8.66 m 177.23,-0.86 c -0.23,-1.13 -0.44,-2.25 -0.65,-3.39 0.79,-0.02 2.38,-0.06 3.18,-0.08 -0.04,1.4 -0.06,2.79 -0.08,4.18 -0.61,-0.18 -1.84,-0.53 -2.45,-0.71 m -286.22,-1.55 c -1.09,-0.86 -1.09,-2.93 0,-3.8 1.73,-0.02 1.73,3.83 0,3.8 m 54.87,1.2 c -1.66,0.1 -2.01,-2.63 -0.11,-2.37 1.66,-0.13 1.99,2.66 0.11,2.37 m 4.66,-0.27 c -0.46,-1.41 1.94,-1.92 2.4,-0.66 0.45,1.42 -1.95,1.94 -2.4,0.66 m 15.2,-0.05 c -0.35,-1.8 3.34,-1.8 3,0 -0.58,1.07 -2.43,1.07 -3,0 m 7,0 c -0.35,-1.8 3.34,-1.8 3,0 -0.58,1.07 -2.43,1.07 -3,0 m 9.05,0.58 c 0.64,-3 1.6,-5.93 2.9,-8.72 -0.65,3.01 -1.61,5.93 -2.9,8.72 m 197.76,-7.06 c 2.35,1.8 3.76,4.39 4.45,7.23 -1.91,-2.13 -3.39,-4.58 -4.45,-7.23 m -447.67,6.49 c 0.36,-3.43 1.45,-6.76 3.46,-9.58 -0.56,3.38 -1.51,6.73 -3.46,9.58 m 162.08,-1.85 c -1.06,-0.86 -0.8,-3.03 0.54,-3.48 1.81,0.12 1.16,3.85 -0.54,3.48 m 5.06,0.03 c -1.02,-1.18 -0.46,-3.45 0.93,-4.11 1.74,0.48 0.75,4.29 -0.93,4.11 m 32.26,0.91 c 0.14,-0.32 0.42,-0.97 0.56,-1.29 2.59,-0.61 0.84,3.48 -0.56,1.29 m -28.31,-1.89 c -1.05,-0.89 -0.56,-3.01 0.79,-3.34 1.87,0.2 0.9,3.88 -0.79,3.34 m 3.84,1.33 c 0.36,-2.58 0.88,-5.15 1.63,-7.65 -0.42,2.57 -0.97,5.13 -1.63,7.65 m 20.24,-1.41 c -1.05,-1.26 -1.05,-3.55 0,-4.82 1.61,0.43 1.61,4.39 0,4.82 m 13.72,1.46 c 0.43,-3.08 1.2,-6.11 2.37,-8.99 -0.53,3.06 -1.3,6.08 -2.37,8.99 m 10,-0.14 c 0.28,-2.38 0.63,-4.76 0.98,-7.14 0.74,-0.03 2.22,-0.09 2.96,-0.13 l -0.32,5.41 c -0.34,-1.49 -0.66,-2.98 -0.97,-4.49 -0.87,2.13 -1.75,4.24 -2.65,6.35 m 17.94,-0.23 c 0.02,-2.66 0.02,-5.33 0,-8 h 1.06 c -0.02,2.67 -0.02,5.34 0,8 h -1.06 m 7.89,0.35 c 0.59,-2.77 1.42,-5.5 2.79,-7.99 -0.66,2.75 -1.64,5.41 -2.79,7.99 m -65.49,-2.29 c -0.98,-1.19 -0.33,-3.35 0.94,-4.1 1.78,0.47 0.85,4.38 -0.94,4.1 m 10.94,-0.15 c -1.05,-1.26 -1.05,-3.55 0,-4.82 1.61,0.43 1.61,4.39 0,4.82 m 9,0 c -1.05,-1.26 -1.05,-3.55 0,-4.82 1.61,0.43 1.61,4.39 0,4.82 m 4.99,1.42 c 0.42,-2.57 0.97,-5.12 1.63,-7.65 -0.37,2.59 -0.88,5.15 -1.63,7.65 m 9.96,-0.02 c 0.28,-2.9 0.74,-5.79 1.28,-8.66 -0.37,2.95 -0.7,5.78 -1.28,8.66 m 14.02,-1.34 c -1.02,-1.18 -0.46,-3.45 0.93,-4.11 1.74,0.48 0.75,4.29 -0.93,4.11 m 3.65,1.44 c 0.4,-2.84 1.41,-5.55 3.11,-7.87 -0.74,2.73 -1.78,5.37 -3.11,7.87 m 9.38,-1.5 c -1.05,-1.26 -1.05,-3.55 0,-4.82 1.61,0.43 1.61,4.39 0,4.82 m 210.79,-3.55 c -1.43,-0.26 -2.53,-2.34 -1.63,-3.58 1.68,-0.68 3.46,2.93 1.63,3.58 m -387.46,-1.37 c -5.8,-3.08 -11.4,-6.57 -16.19,-11.1 6.48,1.83 12.08,5.78 17.91,9 -0.43,0.52 -1.29,1.57 -1.72,2.1 m 372.46,-1.63 c -1.43,-0.26 -2.53,-2.34 -1.63,-3.58 1.68,-0.68 3.46,2.93 1.63,3.58 m -421.76,-1.79 c -1.87,-1.26 -3.83,-2.39 -5.79,-3.51 1.35,-2.2 2.72,-4.4 4.17,-6.53 0.71,3.32 1.34,6.66 1.62,10.04 m 372.11,-0.19 c 2.14,-1.28 4.35,-2.44 6.62,-3.5 -2.2,1.21 -4.41,2.37 -6.62,3.5 m 51.09,-3.21 c 0.78,0.07 2.36,0.2 3.15,0.27 -0.03,1.37 -0.04,2.72 -0.05,4.08 -1.06,-1.43 -2.1,-2.88 -3.1,-4.35 m -387.34,-10.18 c 6.76,2.87 14.46,5.76 18.65,12.18 -7.1,-2.16 -14.65,-5.63 -18.65,-12.18 m 390.63,6.43 c 1.9,1.68 3.32,3.8 4.36,6.1 -1.74,-1.82 -3.2,-3.87 -4.36,-6.1 m -435.93,4.69 c 1.24,-2.8 2.49,-5.61 3.77,-8.41 -0.2,2.43 -0.4,4.85 -0.6,7.27 -1.06,0.39 -2.12,0.77 -3.17,1.14 m 378.86,-0.96 c 3,-2.8 6.5,-5.06 10.38,-6.43 -3.41,2.24 -6.79,4.5 -10.38,6.43 m -11.33,-12.38 c 6.04,0.33 12.41,2.06 18.3,-0.03 6.44,-3.93 6.18,-12.73 7.56,-19.19 2.91,3.48 5.91,6.93 8.34,10.78 -3.1,1.96 -6.56,3.48 -9.11,6.17 -5.26,5.3 -11.69,9.17 -17.96,13.11 -2.97,-3.19 -5.33,-6.88 -7.13,-10.84 m -330.78,9.54 c 0.79,-5.68 4.25,-10.54 8.57,-14.16 -0.33,5.92 -4.7,10.17 -8.57,14.16 m 18.84,-7.06 c 5.69,-1.2 11.48,-1.65 17.26,-2.2 -1.45,3.04 -2.76,6.27 -5.14,8.73 -4.95,0.9 -8.27,-4.21 -12.12,-6.53 m 107.02,5.15 c -8.92,-5.93 -15.88,-14.3 -23.13,-22.09 9.84,-0.95 19.75,-0.6 29.62,-0.13 4.75,-0.83 8.21,2.62 11.31,5.5 5.63,5.49 11.75,10.62 16.26,17.12 -11.35,0.3 -22.75,0.81 -34.06,-0.4 m 37.4,-2.81 c 2.42,-0.98 4.87,-1.92 7.31,-2.87 -0.47,2.43 -1,4.85 -1.55,7.25 -2.04,-1.3 -3.99,-2.74 -5.76,-4.38 m 194.79,-9.36 c 4.32,3.04 7.13,7.85 7.41,13.2 -3.18,-3.94 -6.85,-7.92 -7.41,-13.2 m 31.83,8.38 c 1.03,-1.04 2.07,-2.08 3.11,-3.13 0.88,1.78 1.76,3.55 2.63,5.33 -1.9,-0.77 -3.82,-1.5 -5.74,-2.2 m 11.55,2.08 c -1.42,0.08 -1.69,-2.37 -0.16,-2.38 1.41,-0.07 1.68,2.38 0.16,2.38 m -203.31,-9.15 c 1.91,-0.2 5.73,-0.59 7.64,-0.79 0.79,3.25 1.31,6.62 1.83,9.88 -6.53,1.11 -8.31,-4.37 -9.47,-9.09 m -214,0.39 c 0.44,-1.53 0.87,-3.07 1.3,-4.61 5.25,1.3 10.07,3.73 15.03,5.8 -4.08,-3.29 -7.96,-6.83 -11.39,-10.82 5.03,1.31 9.3,4.43 13.83,6.86 -1.4,3.57 -2.98,7.06 -4.65,10.5 -4.92,-2.18 -9.48,-5.03 -14.12,-7.73 m 382.66,6.8 c 0.46,-6.72 7.07,-9.23 12.06,-12.3 0.52,1.26 1.06,2.52 1.6,3.77 -4.28,3.26 -8.79,6.25 -13.66,8.53 M 0.59,-416.74 c 1.43,-2.88 3,-5.7 4.83,-8.36 0.7,4.23 -1.02,7.14 -4.83,8.36 m -155.15,-9.53 c -2.07,-1.31 -4.68,-2.53 -5.73,-4.94 3.01,-4.83 6.94,-8.99 11.1,-12.84 0.62,8.82 1.49,17.66 4.59,25.98 -3.21,-2.86 -6.03,-6.25 -9.96,-8.2 m 378.31,1.62 c 1.45,-3.08 4.56,-4.83 6.97,-7.07 1.09,1.05 2.17,2.12 3.25,3.18 -2.38,3.14 -4.86,6.2 -7.19,9.36 -1.11,-1.76 -2.27,-3.51 -3.03,-5.47 m -418.7,-13.2 c 5.23,4.13 10.44,8.3 16.14,11.79 -1.11,1.76 -2.25,3.49 -3.43,5.19 -3.39,-6.37 -10.52,-9.93 -12.71,-16.98 m 192.92,15.67 c -1.2,-0.84 0.01,-3.24 1.39,-2.5 1.23,0.86 0.02,3.28 -1.39,2.5 m -128.3,0.22 c 1.16,-9.27 1.36,-18.61 1.67,-27.94 0.91,3.97 1.44,8.03 1.99,12.05 2.88,-0.11 5.77,-0.26 8.65,-0.42 -1.26,4.4 -1.27,9.39 -3.84,13.26 -2.53,1.68 -5.6,2.22 -8.47,3.05 m 298.01,-5.69 c -2.61,-2.97 -1.47,-7.38 -1.7,-10.9 0.84,0.04 2.52,0.12 3.37,0.16 0.53,2.78 1.12,5.48 1.75,8.21 0.51,-5.23 0.91,-10.49 1.55,-15.72 0.52,7.85 -1.72,16.05 1.65,23.49 -2.24,-1.7 -4.72,-3.14 -6.62,-5.24 m -178.66,2.23 c 1.1,-3.46 2.36,-6.9 3.73,-10.27 1.71,0.74 3.41,1.49 5.12,2.24 -0.62,3.53 -1.2,7.04 -2.08,10.5 -2.28,-0.75 -4.54,-1.58 -6.77,-2.47 m 215.09,1.57 c 4.24,-4.6 9.72,-8.3 12.1,-14.31 0.71,-0.07 2.13,-0.22 2.83,-0.29 -1.27,3.23 -1.53,7.54 -4.86,9.41 -3.24,1.96 -6.7,3.49 -10.07,5.19 m -347.33,-1.46 c -1.28,-0.34 -1.91,-2.35 -0.88,-3.28 1.73,-0.65 2.79,3.05 0.88,3.28 m 178.76,0.43 c -1.33,-3.55 -2.64,-7.12 -3.94,-10.69 3.35,1.66 7.13,5.42 11.04,3.16 8.15,-4.57 8,-18.49 -1.31,-21.74 -3.63,0.26 -7.02,1.85 -10.47,2.87 3.01,-2.43 6.38,-6.34 10.75,-4.21 5.62,0.51 8.12,6.26 8.65,11.11 0.15,6.43 -1.4,12.94 -4.82,18.4 -2.47,0.28 -7.42,0.83 -9.9,1.1 m 138.76,-1.03 c 3.1,-1.09 6.27,-1.96 9.48,-2.66 -3.16,0.93 -6.32,1.82 -9.48,2.66 m 14.68,0.77 c 1.08,-6.27 1.06,-12.63 0.77,-18.97 2.06,6.21 1.8,12.96 -0.77,18.97 M 6,-428.92 c -8.31,-7.15 -16.79,-14.24 -24.04,-22.51 4.82,0.82 10.86,-1.02 14.76,2.78 7.52,6.86 15.37,13.47 21.69,21.51 -4.15,0.09 -9.01,1.21 -12.41,-1.78 m 214.04,1.01 c 1.39,-4.86 5.37,-8.17 10.36,-8.87 -2.2,4.23 -5.7,7.61 -10.36,8.87 m -396.28,-1.77 c -0.52,-1.62 0.03,-2.18 1.66,-1.66 0.52,1.63 -0.03,2.19 -1.66,1.66 m -11.73,-3.7 c 1.54,-2.11 3.12,-4.21 4.76,-6.25 1.85,2.53 3.33,5.34 3.96,8.43 -2.95,-0.53 -5.82,-1.42 -8.72,-2.18 m 42.72,2.21 c 0.14,-5.91 -1.08,-13.25 4.49,-17.16 -1.25,5.78 -2.83,11.49 -4.49,17.16 m 322.24,-2.79 c -1.53,-2.58 -0.68,-5.66 -0.32,-8.43 2.58,3.52 4.54,7.51 5.09,11.91 -1.65,-1.06 -3.46,-1.98 -4.77,-3.48 m -311.3,1.43 c -0.32,-5.37 -0.68,-10.75 -1.08,-16.12 0.66,0.18 2,0.53 2.66,0.7 0.61,5.14 1.09,10.29 1.56,15.42 -0.78,0 -2.35,0 -3.14,0 m 155.25,-0.12 c -4.16,-2.84 -8.06,-6.03 -11.31,-9.89 -5.36,-6.4 -12.04,-11.45 -17.97,-17.28 11.82,6.67 20.11,17.51 29.28,27.17 m 171.62,-17.85 c -17.62,-19.57 -39.85,-34.24 -62.41,-47.48 -11.31,-5.71 -22.95,-10.83 -34.89,-15.08 -56.93,-20.55 -121.96,-15.45 -176.09,11.04 -18.97,9 -35.92,21.69 -51.95,35.12 -10.9,8.81 -19.43,19.96 -28.65,30.39 -1.11,3.43 -4.43,2.8 -7.01,2.75 4.11,-10.2 12.84,-17.53 19.35,-26.13 -1.69,-1.33 -3.48,-2.55 -5.01,-4.08 0.13,-2.26 1.02,-4.38 1.7,-6.53 2.83,2.46 5.33,5.37 6.49,9.04 2.63,-2.74 5.23,-5.63 6.64,-9.21 3.3,-0.29 6.67,-1.14 8.96,-3.72 8.13,-8.02 19.39,-11.55 27.79,-19.25 -1.6,-1.96 -3.17,-3.94 -4.87,-5.8 1.71,-1.62 3.5,-3.15 5.38,-4.58 0.49,3.14 0.94,6.28 1.19,9.44 7.57,-4.83 15.84,-8.37 23.69,-12.7 10.85,-5.18 21.85,-11 34.01,-12.19 10.62,-1.81 20.57,-6.23 31.08,-8.47 19.91,-2.77 39.97,-0.75 59.9,0.29 17.53,3.13 35,6.77 52.11,11.71 16.71,5.17 31.96,13.94 46.48,23.53 20.61,11.88 39.25,27.52 53.53,46.62 3.71,4.35 8.01,8.42 9.71,14.06 -7.74,-4.07 -11.43,-12.54 -17.13,-18.77 m -212.46,15.52 c 2.09,-2.79 4.21,-5.55 6.46,-8.21 -0.54,3.63 -1.48,7.15 -3.15,10.4 -0.83,-0.54 -2.48,-1.64 -3.31,-2.19 m 7.02,1.18 c -1.15,-0.78 0.12,-2.85 1.32,-2.04 1.19,0.81 -0.09,2.91 -1.32,2.04 m 198.74,-0.81 c -1.09,-0.86 -1.09,-2.93 0,-3.8 1.73,-0.02 1.73,3.83 0,3.8 m 33.27,1.56 c 1.46,-2.44 3.48,-4.46 5.92,-5.92 -1.46,2.44 -3.48,4.46 -5.92,5.92 m 16.1,-4.22 c 0.41,-0.62 1.22,-1.84 1.63,-2.46 1.65,0.77 3.29,1.54 4.94,2.31 -0.39,1.38 -0.78,2.74 -1.16,4.1 -1.8,-1.33 -3.61,-2.64 -5.41,-3.95 m -376.13,-4.14 c 0.94,-0.02 2.82,-0.06 3.76,-0.08 -0.56,2.53 -1.12,5.05 -1.7,7.56 -0.86,-2.49 -1.54,-4.83 -2.06,-7.48 m 182.45,5.91 c 0.02,-1.72 0.06,-5.17 0.08,-6.89 1.35,-0.94 2.7,-1.86 4.07,-2.81 0.47,3.26 0.02,6.53 -0.75,9.69 -0.85,0.01 -2.55,0.01 -3.4,0.01 m -234.94,-5.51 c 0.03,-0.76 0.08,-2.28 0.11,-3.04 7.26,0.72 14.17,3.26 21.36,4.34 0.19,1.17 0.38,2.34 0.56,3.5 -7.26,-2 -14.42,-4.42 -22.03,-4.8 m 143.54,3.01 c 3.34,0.02 6.61,0.36 9.96,0.59 -3.33,-0.06 -6.66,-0.23 -9.96,-0.59 m 11.86,0.34 c 3.37,-0.46 6.77,-0.04 10.06,0.77 -3.35,-0.12 -6.76,-0.34 -10.06,-0.77 m 95.74,0.3 c -2.75,-6.33 -5.53,-12.87 -10.39,-17.92 -4.14,-3.73 -12.06,-5.16 -16,-0.48 -2.53,4.04 -3.58,8.79 -5.19,13.22 -9.41,-9.23 -19.69,-17.53 -28.9,-26.99 13.24,-0.98 26.57,0.37 39.78,-1.14 -15.5,-1.5 -31.17,0.11 -46.62,-1.65 -6.96,-1.56 -6.48,-14.19 1.15,-14.1 24.58,0.19 49.35,-1.49 73.81,1.37 -24.18,3.79 -48.86,0 -73.2,2.16 13.47,0.44 26.96,0.56 40.44,1.02 10.27,-0.5 20.6,-0.78 30.81,0.75 -6,2.23 -12.61,1.48 -18.86,1.52 -12.47,-0.93 -24.95,0.12 -37.4,0.73 17.73,3.64 35.98,-0.84 53.85,1.85 -1.82,0.77 -3.66,1.5 -5.5,2.21 5.1,0.89 10.55,2.14 13.99,6.37 8.26,9.5 18.97,17.08 25.41,28.07 -10.52,-8.6 -18.35,-19.99 -28.49,-29 -2.83,-2.35 -6.96,-1.8 -10.27,-2.43 4.97,3.15 10.44,5.83 14.4,10.3 7.42,8.19 15.92,15.42 22.34,24.46 -11.71,0.8 -23.46,0.66 -35.16,-0.32 m -112.36,-0.32 c -0.46,-1.41 1.94,-1.92 2.4,-0.66 0.45,1.42 -1.95,1.94 -2.4,0.66 m 23.06,-3.88 c 2.97,-0.04 5.88,0.02 8.87,-0.07 -0.14,-2.36 -0.24,-4.73 -0.36,-7.1 1.4,0.42 2.79,0.85 4.19,1.27 -0.51,3.24 -0.88,6.49 -1.71,9.65 -3.49,-1.7 -7.23,-2.81 -10.99,-3.75 m 193.33,2.25 c -1.29,-0.34 -1.91,-2.35 -0.88,-3.28 1.73,-0.65 2.79,3.05 0.88,3.28 M -8.33,-467.74 c 11.63,6.75 21.52,16.72 28.29,28.31 -8.77,-10.07 -17.97,-19.78 -28.29,-28.31 m 248.35,23.66 c 1.69,0.75 3.42,1.49 5,2.5 -0.8,0.88 -1.63,1.71 -2.5,2.5 -1.02,-1.57 -1.76,-3.29 -2.5,-5 m -441.97,0.92 c 0.91,-0.11 2.74,-0.35 3.65,-0.46 -0.11,0.91 -0.35,2.74 -0.46,3.65 -1.05,-1.07 -2.11,-2.13 -3.19,-3.19 m 143.01,1.75 c 8.59,-1.61 17.32,0.23 25.92,0.62 -8.65,0.24 -17.3,0.1 -25.92,-0.62 m 222.09,0.49 c 2.43,-1.4 4.98,-2.59 7.58,-3.65 -2.51,1.28 -5.04,2.5 -7.58,3.65 m 18.57,-5.9 c 1.17,2.08 2.15,4.27 2.97,6.51 -1.1,-2.11 -2.09,-4.29 -2.97,-6.51 m 48.6,6.43 c 0.83,-1.58 1.68,-3.16 2.54,-4.74 1.93,0.9 3.83,1.86 5.7,2.89 -2.7,0.81 -5.47,1.34 -8.24,1.85 m -410.41,-2.62 c -1.53,-0.94 -0.16,-3.85 1.52,-2.84 1.52,0.96 0.18,3.91 -1.52,2.84 m 8.34,0.59 c 0.49,-1.76 1.46,-5.28 1.95,-7.04 1.36,2.13 2.56,4.35 3.45,6.7 -1.8,0.13 -3.6,0.24 -5.4,0.34 m 110.47,-8.09 c 12.28,-0.56 24.58,0.2 36.87,0.02 l -0.01,0.98 c -11.73,0 -23.45,0.01 -35.18,0.06 0.21,1.14 0.43,2.27 0.64,3.4 1.71,0.44 5.13,1.34 6.83,1.79 -4.87,1.66 -9.26,-0.68 -9.15,-6.25 m 11.53,5.26 c 4.58,0.14 9.15,0.45 13.73,0.73 -4.59,0.13 -9.19,-0.01 -13.73,-0.73 m 233.44,-3.63 c 1.47,1.75 2.81,3.61 4.03,5.54 -1.47,-1.75 -2.81,-3.61 -4.03,-5.54 m -383.9,2.61 c 2.29,-5.65 6.01,-10.51 9.74,-15.29 14.67,-17.92 30.92,-34.7 49.71,-48.35 26.35,-19.23 55.53,-35.53 87.39,-43.46 27.04,-6.82 54.93,-12.3 82.95,-10.47 39.45,1.74 79.07,10.51 114.03,29.3 27.03,14.3 51.97,32.77 72.85,55.18 9.45,10.24 19.5,20.47 25.72,33.11 -6.04,-0.63 -14.64,1.86 -18.65,-4.19 -28.45,-36.85 -67.16,-65.35 -110.34,-82.58 -50.09,-20.24 -106.65,-22.43 -158.68,-8.68 -54.68,15.14 -103.91,48.83 -138.07,94.09 -4.24,4.33 -11.43,3 -16.65,1.34 m 361.13,-18.83 c 1.13,-2.25 4.39,-4.99 6.52,-2.26 3.15,4.59 2.76,10.85 3.45,16.16 -1.06,-1.82 -2.1,-3.66 -3.14,-5.5 -0.1,1.86 -0.3,5.56 -0.4,7.42 -1.19,-2.14 -2.38,-4.29 -3.6,-6.42 0.27,3.82 0.53,7.68 0.72,11.49 -1,-6.96 -6.15,-13.66 -3.55,-20.89 m 13.83,20.43 c -0.91,-4 4,0.91 0,0 m -348.93,-1.67 c -1.24,-0.85 -0.03,-3.27 1.39,-2.5 1.2,0.85 -0.01,3.25 -1.39,2.5 m 268.9,0.25 c -1.36,0.03 -3.06,-1.61 -2.35,-2.98 1.52,-1.09 4.23,2.03 2.35,2.98 m 93.97,0.2 c -1.43,0.34 -2.55,-2.16 -0.88,-2.56 1.45,-0.39 2.55,2.17 0.88,2.56 m -151.81,-6.77 c 1.59,0.74 3.19,1.49 4.78,2.24 -0.29,1.69 -0.57,3.37 -0.86,5.05 -1.59,-2.28 -2.89,-4.68 -3.92,-7.29 m 139.89,5.49 c -0.49,-1.61 2.27,-2.19 2.65,-0.63 0.39,1.55 -2.2,2.04 -2.65,0.63 m 29.99,0.23 c -1.54,-0.43 -0.99,-3.11 0.66,-2.46 1.58,0.41 0.95,3.08 -0.66,2.46 m -14.23,-29.84 c 10.63,8.22 20.31,18.16 26.6,30.14 -9.02,-9.91 -20.01,-18.21 -26.6,-30.14 m -353.28,26.93 c -1.03,-1.13 0.86,-3.02 2,-2 1.07,1.16 -0.85,3.08 -2,2 m 68.54,-23.84 c 16.86,-1.93 33.91,-0.17 50.81,0.39 3.9,-1.16 6.5,1.69 8.94,3.94 -11.08,1.11 -22.26,-1.11 -33.32,0.47 -3.24,0.57 -6.25,3.07 -6.51,6.5 -0.09,5.11 4.01,8.85 6.22,13.11 -9.53,-7.16 -18.22,-15.52 -26.14,-24.41 m 158.57,-6.98 c 11.37,9.09 21.71,19.55 30.43,31.2 -10.32,-10.21 -21.66,-19.54 -30.43,-31.2 m 109.49,29.98 c -2.66,-3.18 -1.82,-7.86 -2.42,-11.59 4.54,2.96 8.32,6.9 11.85,10.98 -3.09,0.61 -6.32,1.64 -9.43,0.61 m -92.44,-7.76 c 2.18,2.24 4.31,4.53 6.36,6.88 -2.19,-2.22 -4.32,-4.52 -6.36,-6.88 m 12.15,4.05 c -9.32,-10.22 -19.75,-19.48 -27.86,-30.74 5.58,3.02 9.7,7.98 14.22,12.3 6.64,6.83 13.89,13.21 19.16,21.23 -2,-0.55 -4.13,-1.14 -5.52,-2.79 m -268.54,1.16 c -1.06,-1.19 0.78,-3.43 2.14,-2.54 1.05,1.2 -0.79,3.44 -2.14,2.54 m 8.34,1.42 c 0.66,-2.32 1.36,-4.64 2.06,-6.95 1.84,1.04 3.66,2.08 5.51,3.1 -2.41,1.49 -4.95,2.76 -7.57,3.85 m 24.82,-2.75 c 2.65,-2.53 5.37,-4.96 8.11,-7.4 -0.25,2.95 -0.46,5.67 -0.72,8.55 -2.47,-0.36 -4.94,-0.74 -7.39,-1.15 m 21.58,-1.11 c -0.52,-1.62 0.03,-2.18 1.66,-1.66 0.52,1.63 -0.04,2.19 -1.66,1.66 m 60.51,-0.46 c 2.89,-0.44 5.76,-0.76 8.69,-1.06 12.69,-0.47 25.35,0.92 38.02,1.28 -15.57,0.05 -31.15,0.37 -46.71,-0.22 m 254.77,-1.06 c -0.07,-1.35 -0.13,-2.7 -0.17,-4.07 2.24,1.54 4.38,3.23 6.4,5.06 -2.08,-0.36 -4.15,-0.7 -6.23,-0.99 m -363.3,0.29 c -0.86,-3.98 3.99,0.82 0,0 m 98.46,0.5 c -0.81,-2.54 -1.43,-5.03 -1.87,-7.7 0.87,-0.78 1.73,-1.56 2.6,-2.35 18.65,1.45 37.38,-0.98 55.98,1.23 -17.6,0.58 -35.22,0.95 -52.81,-0.24 -0.06,2.31 -0.09,4.63 0.24,6.92 -1.38,0.71 -2.76,1.44 -4.14,2.14 m 164.87,-3.56 c -8.87,-9.09 -17.19,-18.8 -26.91,-27.01 -2.86,-2.34 -6.79,-1.77 -10.26,-2.07 -22.44,0.34 -44.87,-0.52 -67.31,-0.51 -0.76,-1.61 -1.52,-3.22 -2.26,-4.84 30.57,-0.22 61.21,-0.52 91.72,1.57 3.95,2.16 6.57,6.04 9.7,9.15 7.83,9.14 17.03,17.04 24.41,26.56 -6.37,0.28 -14.37,2.53 -19.09,-2.85 m -146.11,2.77 c 0.11,-0.35 0.32,-1.03 0.42,-1.38 2.48,-0.95 1.27,3.3 -0.42,1.38 m -76.2,-7.67 c 1.71,-0.67 3.42,-1.32 5.13,-1.99 1.22,2.85 2.26,5.78 3.02,8.78 -2.85,-2.1 -5.21,-4.79 -8.15,-6.79 m 63.5,3.7 c 16.25,0.84 32.52,-0.41 48.77,0.22 -9.92,1.93 -20,0.45 -30,1.01 -6.28,0.04 -12.57,-0.18 -18.77,-1.23 m -102.78,-1.93 c 2.23,-3.44 5.03,-6.53 8.47,-8.8 -2,3.63 -5.06,6.51 -8.47,8.8 m 243.56,-0.82 c -1.78,-1.63 -3.53,-3.29 -5.26,-4.98 1.85,1.55 3.6,3.22 5.26,4.98 m 9.51,-31.59 c -4.37,-6.28 -13.14,-4.41 -19.49,-5.73 -20.51,-2.73 -41.42,2.07 -61.73,-2.89 21.38,2.35 42.93,-0.14 64.32,2.29 5.7,1.54 13.94,-1.56 18.07,4.15 8.43,9.37 17.3,18.33 26.36,27.08 0.78,-1.35 1.58,-2.71 2.39,-4.06 -3.09,-3.62 -6.12,-7.3 -8.84,-11.22 4.17,3.62 7.9,7.71 11.85,11.55 -1.36,2.69 -2.71,5.39 -4.05,8.06 -9.85,-9.52 -19.44,-19.31 -28.88,-29.23 m 99.9,29.02 c -0.78,-1.62 -1.53,-3.25 -2.26,-4.9 0.83,-0.01 2.5,-0.04 3.33,-0.05 0.69,1.25 1.37,2.5 2.06,3.74 -1.05,0.41 -2.1,0.82 -3.13,1.21 m -309.25,-4.31 c 7.88,-6.72 16.09,-13.5 25.8,-17.42 0.1,4.81 -0.48,9.72 -3.36,13.71 1.58,1.94 3.16,3.88 4.62,5.91 -9.07,0 -18.13,-0.57 -27.06,-2.2 m 184.41,-6.87 c 3.26,2.59 6.71,5.01 9.4,8.22 -3.45,-2.36 -6.37,-5.37 -9.4,-8.22 m 61,8.19 c -0.36,-3.37 -1.31,-6.78 -3.79,-9.23 -9.33,-9.85 -19.09,-19.33 -27.49,-30.01 24.14,6.71 46.41,19.23 66.16,34.49 -10.56,6 -23.27,4.25 -34.88,4.75 m -267.68,-2.38 c 1.11,-3.63 3.29,-6.79 6.16,-9.24 0.46,1.57 0.97,3.12 1.22,4.72 -1.55,2.7 -4.76,3.35 -7.38,4.52 m 318.29,-7.27 c 0.59,-0.36 1.77,-1.09 2.36,-1.46 1.51,0.77 4.52,2.31 6.03,3.08 -1.02,1.57 -2.01,3.16 -2.86,4.82 -1.87,-2.13 -3.7,-4.28 -5.53,-6.44 m -328.88,5.22 c 8.73,-10.61 19.76,-19.04 30.85,-27.03 48.95,-34.33 110.42,-50.73 169.95,-44.03 30.4,3.93 61.12,11.37 87.64,27.25 -3.41,-0.62 -6.86,-1.66 -10.36,-1.07 -6.15,-4.67 -14.29,-5.33 -20.59,-9.78 -13.24,-5.25 -27.42,-7.6 -41.26,-10.83 -7.23,-1.78 -14.74,-0.44 -22.04,-1.7 -9.05,-0.7 -18.02,-2.23 -27.08,-2.83 -6.75,0.39 -13.38,2 -20.15,2.32 -15.74,1.14 -30.72,6.42 -46.05,9.77 -9.4,3.72 -19.45,5.86 -28.45,10.52 -19.71,12.61 -41.29,22.51 -59.17,37.86 -4.26,3.4 -8.13,7.53 -13.29,9.55 m 126.68,-1.33 c -1.06,-1.19 0.78,-3.43 2.14,-2.54 1.05,1.2 -0.79,3.44 -2.14,2.54 m -117.92,-0.82 c -1.25,-1.21 0.62,-3.74 2.12,-2.76 1.21,1.22 -0.61,3.82 -2.12,2.76 m 60.58,-0.76 c 0.43,-1.61 4.39,-1.61 4.82,0 -1.27,1.05 -3.55,1.05 -4.82,0 m 26.45,0.19 c 0.14,-0.32 0.42,-0.97 0.56,-1.29 2.59,-0.61 0.84,3.48 -0.56,1.29 m 26.99,1.04 c -1.06,-4.21 -1.74,-8.51 -1.9,-12.85 1,-0.06 3,-0.17 4,-0.22 1.01,4.46 2.1,9.95 -2.1,13.07 m -99.36,-1.51 c 0.08,-0.75 0.23,-2.26 0.31,-3.01 1.27,-0.08 2.55,-0.16 3.82,-0.24 -1.36,1.1 -2.74,2.19 -4.13,3.25 m 305.27,-14.61 c 6.5,3.65 12.05,8.82 16.59,14.7 -6.29,-3.82 -13.21,-7.87 -16.59,-14.7 m -306.02,11.17 c -0.17,-1.66 -0.34,-3.34 -0.49,-5.02 1.84,-1.05 3.69,-2.08 5.56,-3.09 -0.24,3.65 -1.96,6.46 -5.07,8.11 m 41.17,-3.58 c 8.61,-0.29 17.25,-0.25 25.86,0.23 -8.54,1.72 -17.27,0.06 -25.86,-0.23 m 26.1,0.04 c 2.92,0.13 8.77,0.39 11.7,0.51 -3.91,0.26 -7.82,-0.08 -11.7,-0.51 m 44,1.51 c -3.39,-3.91 -7.54,-8.13 -13.07,-8.19 -18.8,-0.2 -37.73,1.52 -56.39,-1.42 31.37,-19.04 68.41,-27.94 104.92,-28.9 23,0.6 46.46,1.88 68.41,9.41 -5.8,0.94 -11.7,1.14 -17.56,1.18 -24.66,-0.71 -49.34,-1.37 -74.01,-0.9 -4.23,-0.83 -9.18,1.54 -9.91,5.99 -0.61,6.14 3.38,11.08 6.05,16.2 -2.8,2.23 -5.63,4.44 -8.44,6.63 m 182.68,-7.72 c 4.14,-0.26 7.69,1.91 10.3,4.95 -1.05,0.02 -2.11,0.04 -3.16,0.05 -0.1,1.22 -0.21,2.44 -0.32,3.65 -2.93,-2.3 -5.08,-5.38 -6.82,-8.65 m -213.37,6.8 v -1.04 c 3.75,0 11.25,0 15,0 v 1.04 c -3.75,0 -11.25,0 -15,0 m 148.92,-8.41 c 2.65,2.3 5.09,4.83 7.42,7.44 -2.91,-2.01 -5.45,-4.5 -7.42,-7.44 m -215.14,4.92 c -0.54,-1.62 2.19,-3.03 3.44,-2.06 0.54,1.63 -2.2,3.04 -3.44,2.06 m 24.57,-1.06 c 13.2,-2.48 26.75,0.41 40.05,0.14 -13.2,2.3 -26.87,2.03 -40.05,-0.14 m 192.4,-7.59 c 3.22,2.7 5.91,5.95 8.5,9.24 -3.22,-2.7 -5.92,-5.94 -8.5,-9.24 m -152.16,7.39 c 4.95,-0.04 9.87,0.27 14.82,0.46 -4.94,0.04 -9.89,-0.23 -14.82,-0.46 m -67.33,-0.72 c -0.67,-2.59 -1.4,-5.15 -2.17,-7.71 3.78,-0.26 6.71,2.37 9.66,4.29 -2.43,1.28 -4.94,2.41 -7.49,3.42 m 269.87,-9.8 c 2.61,0.53 5.2,1.15 7.75,1.9 -0.61,2.24 -1.13,4.49 -1.58,6.76 -2.76,-2.33 -4.98,-5.22 -6.17,-8.66 m -81.11,2.34 c -27.73,-0.28 -55.39,-2.87 -83.14,-2.13 -0.35,-2.66 -0.8,-5.09 -1.07,-7.84 1.02,-0.44 2.04,-0.88 3.07,-1.33 0.08,2.73 0.16,5.45 0.24,8.16 19.36,-0.25 38.69,0.63 58.01,1.72 13.47,0.75 27.43,-1.24 40.42,3.37 -5.83,-0.81 -11.62,-2 -17.53,-1.95 m 19.91,-5.4 c 2.93,2.65 5.38,5.75 7.86,8.8 -2.91,-2.65 -5.49,-5.65 -7.86,-8.8 m 67.84,-3.11 c 3.77,2.36 7.45,4.87 10.92,7.64 -0.74,0.55 -2.21,1.65 -2.94,2.2 -2.86,-3.11 -5.73,-6.24 -7.98,-9.84 m -19.02,1.37 c 2.08,-2.37 4.11,-4.78 6.41,-6.95 1.08,3.73 0.95,7.63 0.5,11.44 -2.33,-1.46 -4.62,-2.98 -6.91,-4.49 m 14.37,0.23 c -1.7,-2.46 -3.39,-4.94 -5.08,-7.42 2.76,1.54 5.5,3.11 8.25,4.68 -1.07,0.91 -2.12,1.83 -3.17,2.74 m -120.45,-3.64 c -14.03,0.27 -28.08,-0.07 -42.07,-1.29 16.01,0.35 32.05,-0.36 48.04,0.48 15.14,2.42 30.49,2.28 45.77,2.94 -17.31,1.39 -34.52,-0.82 -51.74,-2.13 m -126.77,1.59 c 1.86,-3.21 4.55,-5.81 7.65,-7.83 -0.11,1.41 -0.23,2.8 -0.34,4.2 1.45,0.05 2.9,0.11 4.35,0.17 -3.45,2.25 -7.47,3.56 -11.66,3.46 m 218.2,-8.02 c 3.62,0.54 7.31,1 10.88,1.92 -1.37,1.33 -2.69,2.73 -4.25,3.81 -3.2,-0.24 -4.93,-3.43 -6.63,-5.73 m -201.95,4.49 c -0.86,-3.98 3.99,0.82 0,0 m -4.07,-3.29 c 1.3,-4.32 4.87,-7.14 9.19,-8.09 -0.66,2.51 -0.54,5.54 -2.54,7.47 -2.13,0.78 -4.44,0.53 -6.65,0.62 m 200.09,-0.22 c -2.45,-1.38 -4.89,-2.77 -7.33,-4.18 0.36,-0.94 0.72,-1.88 1.09,-2.83 2.26,0.54 4.54,1.05 6.84,1.52 -0.2,1.84 -0.39,3.66 -0.6,5.49 m 20.75,0 c -0.59,-1.58 -1.16,-3.16 -1.7,-4.76 1.93,1.24 3.76,2.61 5.49,4.11 -0.95,0.16 -2.85,0.48 -3.79,0.65 m -203.77,-2.49 c -0.86,-3.98 3.99,0.82 0,0 m -18.63,-1.72 c -1.03,-1.3 1.21,-2.87 2.15,-1.56 1.07,1.32 -1.21,2.89 -2.15,1.56 m 17.47,-0.34 c -0.49,-2 -0.96,-4 -1.41,-6.02 1.98,-0.45 3.97,-1.11 6.03,-1.06 1.45,1 2.66,2.3 3.95,3.48 -2.8,1.34 -5.66,2.53 -8.57,3.6 m 160.8,-5.56 c 0.41,-1.04 0.83,-2.08 1.25,-3.13 2.42,0.42 4.83,0.85 7.26,1.28 -0.8,1.35 -1.61,2.7 -2.41,4.03 -2.04,-0.71 -4.07,-1.43 -6.1,-2.18 m -163.52,-0.52 c -1.14,-0.87 0.32,-2.83 1.46,-1.92 1.14,0.88 -0.32,2.85 -1.46,1.92 m 14.75,-0.69 c 2.36,-2.44 5.25,-4.26 8.37,-5.59 -0.19,2.09 -0.32,4.17 -0.21,6.26 -2.74,-0.04 -5.46,-0.27 -8.16,-0.67 m 16.52,0.96 c -0.92,-1.13 1.04,-2.59 1.92,-1.46 0.92,1.15 -1.05,2.61 -1.92,1.46 m 118.78,-3.95 c 0.48,-0.76 1.45,-2.26 1.94,-3.01 2.33,0.57 4.74,1.05 7.11,1.56 -1.48,0.3 -2.96,0.59 -4.44,0.88 0.98,1.12 1.96,2.23 2.95,3.33 -2.64,-0.57 -5.14,-1.6 -7.56,-2.76 m -121.63,-1.83 c 2.19,-1.1 4.34,-2.65 6.89,-2.74 1.49,1.21 2.74,2.68 4.07,4.07 -3.74,1.64 -7.91,1.78 -10.96,-1.33 m -14.55,1.86 c 0.15,-1.05 0.44,-3.14 0.59,-4.18 1.09,0.56 2.19,1.1 3.24,1.72 -1.24,0.89 -2.54,1.67 -3.83,2.46 m 32.52,-0.97 c -1.02,-1.67 1.89,-3.04 2.84,-1.52 1.07,1.7 -1.89,3.05 -2.84,1.52 m 87.83,-3.48 c 2.79,-0.65 5.64,-0.75 8.5,-1.04 -0.5,1.78 -1,3.56 -1.48,5.33 -2.42,-1.28 -4.82,-2.63 -7.02,-4.29 m -90.9,-6.2 c 3.54,-0.04 6.67,1.56 9.22,3.91 -1.41,1.19 -2.82,2.37 -4.23,3.54 -1.8,-2.39 -3.45,-4.89 -4.99,-7.45 m -13.76,5.61 c -0.75,-1.37 1.65,-2.58 2.5,-1.39 0.77,1.42 -1.65,2.63 -2.5,1.39 m 93.8,0.84 c -0.18,-3.07 -0.17,-6.15 0.05,-9.21 1.99,0.86 3.96,1.79 5.88,2.8 -1.58,0.4 -3.17,0.77 -4.75,1.14 1.86,0.65 3.73,1.31 5.59,1.97 -2.23,1.15 -4.5,2.24 -6.77,3.3 m -15.45,-0.89 c -0.51,-1.59 -1,-3.19 -1.47,-4.81 3.03,0.3 6.06,0.6 9.09,0.9 -2.45,1.44 -5.05,2.76 -7.62,3.91 m -47.05,-3.52 c 1.58,-0.96 3.17,-1.9 4.78,-2.83 0.42,1.71 0.83,3.42 1.24,5.12 -2.03,-0.7 -4.04,-1.47 -6.02,-2.29 m 31.05,1.87 c -0.43,-0.7 -1.3,-2.1 -1.73,-2.8 2.66,-0.65 5.16,-0.74 7.93,-1.39 -0.79,1.38 -1.6,2.74 -2.4,4.11 -1.27,0.03 -2.54,0.06 -3.8,0.08 m -18.23,-1.18 c 2.91,-4.27 7.71,-5.47 12.68,-4.06 -3.64,2.73 -7.85,4.92 -12.68,4.06 m 60.04,320.24 c 9.2,7.47 16.84,16.57 25.72,24.39 1.22,-2.1 2.46,-4.2 3.71,-6.29 -7.45,-6.72 -14.85,-13.51 -21.79,-20.75 l 4.93,-0.57 c -1.06,-4.25 -1.24,-8.67 -0.02,-12.91 2.47,1.58 8.07,0.45 9.18,4.26 2.34,7.61 -0.25,16.32 3.42,23.6 1.93,3.81 6.89,3.77 10.55,2.83 4.23,-1.76 6.04,-6.42 8.81,-9.76 -1.22,-1 -2.42,-2.03 -3.62,-3.06 -1.55,3.27 -2.48,8.07 -6.67,8.86 -4.03,-1.22 -5.59,-5.83 -4.85,-9.73 -0.91,-5.28 0.9,-11.45 -2.1,-16.25 -4.28,-6.26 -15.06,-4.36 -17.79,2.47 -2.27,4.92 -5.58,9.18 -9.48,12.91 m -128.99,-8.19 c 8.99,-5.41 18.39,-10.07 27.78,-14.73 -6.42,-4.14 -14.4,-4 -21.59,-5.88 4.26,-3.2 8.91,-5.88 13.83,-7.93 -0.7,-1.53 -1.41,-3.05 -2.12,-4.58 -8.65,4.97 -17.42,9.86 -26.72,13.49 -0.11,1.34 -0.2,2.68 -0.3,4.01 7.24,1.4 14.58,2.16 21.78,3.79 -4.73,3.15 -9.66,5.98 -14.86,8.26 0.72,1.2 1.45,2.39 2.2,3.57 m 158.86,-13.57 c 2.54,1.78 5.55,2.34 8.51,1.37 -0.92,-1.78 -1.84,-3.57 -2.77,-5.35 -1.97,1.24 -3.88,2.58 -5.74,3.98 m -6.05,-23.47 c 9.78,7.61 18.39,16.55 26.76,25.66 1.15,-1.84 3.45,-5.51 4.6,-7.34 -6.69,-4.47 -12.82,-9.78 -17.75,-16.17 7.86,1.23 15.58,3.18 23.32,5.01 2.02,-3.1 4.17,-6.1 6.3,-9.15 -2.35,-5.34 -4.79,-10.68 -6.23,-16.36 4.17,3.01 8.26,6.13 12.18,9.47 0.82,-1.34 1.64,-2.67 2.46,-4.02 -8.46,-6.73 -16.6,-13.88 -25.39,-20.19 -0.61,0.37 -1.83,1.12 -2.44,1.5 3.23,8.05 7.54,15.71 9.66,24.16 -6.81,-3.98 -13.08,-8.79 -19.77,-12.96 -0.56,1.23 -1.11,2.46 -1.66,3.68 8.08,6 17.13,11.03 23.96,18.55 -11.17,-0.75 -21.97,-3.79 -32.72,-6.73 -1.1,1.63 -2.19,3.26 -3.28,4.89 m -165.62,13.24 c 9.06,-5.38 18.49,-10.11 28.05,-14.55 -0.77,-2.05 -1.56,-4.09 -2.35,-6.14 -9.38,4.65 -18.31,10.21 -28,14.2 0.76,2.17 1.54,4.32 2.3,6.49 m -16.09,-29.14 c -0.92,8.49 6.14,14.37 10.86,20.45 1.94,-1.24 3.88,-2.47 5.86,-3.64 -7.36,0.13 -13.4,-6.37 -11.91,-13.83 0.43,-12.43 17.74,-18.83 26.36,-10.27 2.32,4.39 1.17,9.72 1.15,14.51 1.93,-1.17 3.86,-2.33 5.81,-3.47 -2.42,-7.6 -3.87,-17.43 -12.22,-20.76 -11.34,-6.28 -27.28,4.02 -25.91,17.01 m 215.33,-20.46 c 6.78,7.36 14.49,13.85 20.74,21.71 1.5,-1.49 3,-2.99 4.49,-4.5 -7.2,-7.61 -14.17,-15.71 -22.73,-21.84 -1.65,1.01 -3.8,2.46 -2.5,4.63 m -228.29,10.52 c 1.88,2.08 3.87,4.05 5.95,5.91 6.25,-8.46 13.87,-15.81 21.94,-22.52 -1.57,-2.01 -3.18,-3.99 -4.85,-5.93 -7.14,8.03 -14.43,16.05 -23.04,22.54 m 255.67,4.56 c 1.43,-1.48 2.96,-2.92 4.01,-4.73 -1.93,-6.73 -5.98,-12.67 -8.28,-19.28 7.49,2.51 14.75,5.84 21.44,10.07 1.13,-1.26 2.26,-2.52 3.4,-3.79 -10.55,-4.96 -21.31,-9.51 -31.48,-15.23 -1.25,1.54 -2.49,3.07 -3.74,4.6 5.15,9.31 10.11,18.73 14.65,28.36 m -259.08,-7.33 c 1.98,1.42 3.99,-0.4 5.66,-1.4 -2.1,-1.83 -4.52,-3.22 -6.85,-4.71 5.4,-8.11 13.69,-14.04 18.3,-22.68 -1.62,-0.87 -3.24,-1.74 -4.86,-2.61 -6.24,6.91 -12.53,13.77 -18.93,20.53 -2.51,-2.6 -5.01,-5.2 -7.52,-7.8 -0.49,2.42 -1.85,5.43 0.4,7.4 4.23,4.16 8.86,7.99 13.8,11.27 m 281.17,-11.23 c 3.97,-4.16 7.48,-8.74 11.29,-13.05 -0.46,-1.33 -0.93,-2.67 -1.38,-4.01 -0.5,0.09 -1.48,0.26 -1.97,0.35 -1.41,3.32 -3.26,6.41 -5.41,9.28 -2.6,-1.95 -5.19,-3.92 -7.76,-5.89 1.76,-2.1 3.58,-4.15 5.47,-6.14 -1.46,-1.3 -2.92,-2.58 -4.4,-3.85 -0.93,2.7 -1.93,5.38 -2.98,8.04 -4.71,-2.76 -10.5,-5.3 -11.71,-11.27 2.4,-1.36 4.81,-2.7 7.22,-4.04 -1.62,-0.91 -3.25,-1.81 -4.88,-2.69 -3.15,4.28 -6.34,8.52 -9.46,12.81 9.16,6.1 18.56,12.23 25.97,20.46 m -190.84,-29.92 c 3.34,5.79 6.74,11.56 9.49,17.66 0.81,-6.94 0.66,-13.96 1.62,-20.89 1.47,-5.81 -2.47,-10.54 -5.29,-15.11 -0.33,5.99 0.66,11.94 1.22,17.88 -2.96,-5.61 -4.33,-11.85 -6.47,-17.79 -2.58,5.67 -3.69,12.54 -0.57,18.25 m 69.45,17.76 c 2.64,-3.34 4.02,-7.41 5.52,-11.34 1.23,-3.39 5.11,-5.29 5.36,-9.13 0.17,-3.88 -1.11,-7.71 -1.99,-11.47 -3.11,3.64 -3.14,8.58 -3.9,13.07 -1.05,-0.36 -2.09,-0.72 -3.13,-1.08 1.03,-4.37 4.32,-9.16 2.1,-13.58 -4.59,4.73 -7.72,10.92 -8.28,17.53 1.56,-0.63 3.11,-1.29 4.68,-1.92 -1.11,5.93 -2.03,11.96 -0.36,17.92 m 104.43,-23.23 c 11.5,1.73 22.99,3.64 34.3,6.34 1.11,-5.44 4.02,-11.28 1.45,-16.69 -1.59,-2.9 -3.87,-5.8 -7.02,-7.04 -6,-0.25 -10.76,4.06 -16.57,4.6 -3.78,-0.3 -5.14,-4.08 -6.33,-7.09 -1.36,-3.59 -4.74,-6.07 -5.74,-9.81 -0.06,-2.69 2.07,-5.54 4.89,-5.63 6.06,2.14 11.22,6.5 17.5,8.09 3.72,1.43 7.42,-0.83 9.35,-3.84 1.39,-6.37 -3.57,-11.15 -6.43,-16.23 -1.36,1.29 -2.71,2.58 -4.06,3.88 3.46,2.5 6.19,6.22 4.32,10.64 -6.43,-1.42 -11.73,-5.74 -18.08,-7.28 -4.07,-1.95 -9.1,0.62 -10.18,4.79 -1.85,7.65 1.97,14.91 6.72,20.56 3.3,3.67 7.75,6.07 11.08,9.73 -4.83,0.14 -9.65,-0.27 -14.33,-1.48 -0.31,2.16 -0.6,4.32 -0.87,6.46 m 20.07,-3.85 c -1.08,-5.07 4.32,-9.83 9.35,-7.24 4.5,1.59 2.61,7.24 3.11,10.96 -3.99,-1.43 -9.13,-0.68 -12.46,-3.72 m -317.68,-12.29 c 10.3,5.84 21.15,10.64 31.81,15.77 0.32,-3.13 0.63,-6.28 0.91,-9.43 -3.2,-0.95 -6.85,-1.26 -9.63,-3.31 -1.34,-2.58 -0.64,-5.71 -0.9,-8.55 3.78,-0.44 7.56,-0.88 11.36,-1.27 1.48,-3.67 2.95,-7.34 4.31,-11.06 -7,-1.94 -13.5,-5.26 -19.81,-8.8 4.83,-0.5 9.69,-0.94 14.52,-1.49 -1.06,-2.67 -2.09,-5.35 -3.03,-8.06 5.35,1.7 10.18,4.67 14.77,7.85 0.9,-1.79 1.78,-3.6 2.62,-5.43 -10.49,-3.87 -20.42,-9.1 -29.86,-15.06 -2.22,6.46 3.17,11.44 6.06,16.66 -4.36,0.55 -8.86,0.06 -13.15,1.12 -2.49,1.18 -3.47,4.02 -4.93,6.16 8.89,3.7 17.61,7.79 26.45,11.6 0.04,0.67 0.12,2 0.16,2.67 -10.56,2.17 -21.52,2.53 -31.9,5.51 0.06,1.28 0.18,3.84 0.24,5.12 m 10.81,-3.44 c 3.12,-0.71 6.36,-0.63 9.26,0.83 -3.06,2.43 -6.49,1.44 -9.26,-0.83 m 108.3,-10.22 c -0.63,6.15 -4.36,14.77 2.25,18.63 2.65,-5.78 1.76,-12.29 1.79,-18.47 -1.01,-0.04 -3.03,-0.12 -4.04,-0.16 m 170.34,-8.89 c 9.54,-6.04 19.57,-11.25 29.69,-16.27 -3.88,-9.02 -8.64,-17.64 -13.62,-26.09 -1.72,0.95 -3.42,1.92 -5.11,2.9 1.67,2.32 3.33,4.64 4.87,7.05 -8.26,4.33 -16.46,8.76 -24.81,12.9 0.71,1.96 1.46,3.91 2.22,5.85 8.65,-4.78 17.25,-9.68 26.25,-13.79 0.63,2.42 1.39,4.82 1.55,7.32 -7.04,6.04 -16.08,9.24 -24.15,13.66 0.96,2.19 2.02,4.34 3.11,6.47 m -246.01,-19.06 c 2.72,0.96 5.44,1.89 8.21,2.72 2.48,-4.43 4.94,-8.89 7.3,-13.41 -9.85,-4.39 -19.5,-9.22 -29.31,-13.72 -0.81,2.33 -1.58,4.68 -2.26,7.05 7.79,3.39 15.38,7.23 23.14,10.69 0.07,1.27 0.14,2.54 0.21,3.8 -2.43,0.97 -4.86,1.92 -7.29,2.87 m 230.96,-6.34 c 0.91,0.73 1.83,1.44 2.74,2.16 7.84,-8.85 18.95,-15.46 23.52,-26.81 -9.74,0.39 -19.34,2.2 -29.01,3.19 0.19,-1.78 0.4,-3.57 0.62,-5.35 -5.78,-1.4 -10.68,-5.46 -10.36,-12.13 2.09,-0.45 4.19,-1.3 6.37,-1.09 7.6,3.52 13.1,12.43 22.38,11.49 2,-0.17 4.24,-0.97 5.03,-3.06 4.07,-5.34 -0.4,-11.46 -1.38,-17.09 -1.86,0.34 -3.71,0.69 -5.56,1.05 1.97,3.64 3.44,7.52 4.56,11.5 -9.53,2.49 -15.08,-6.81 -22.75,-10.35 -6.89,-3.74 -16.16,5.97 -11.43,12.53 4.88,6.18 6.84,13.75 9.32,21.04 2.9,-0.97 5.79,-2.33 8.9,-2.32 2.47,1.58 4.52,4.38 4.23,7.43 -2.17,2.82 -4.76,5.23 -7.18,7.81 m 10.67,-12.02 c -0.18,-1.56 -0.36,-3.12 -0.53,-4.69 1.56,0.18 3.12,0.36 4.69,0.53 -1.36,1.42 -2.75,2.81 -4.16,4.16 m -249.02,-23.26 c 8.4,8.54 17.52,16.34 25.87,24.92 0.64,-2.58 1.2,-5.1 1.79,-7.73 -1.68,-1.79 -3.67,-3.41 -4.72,-5.68 0,-2.73 0.9,-5.35 1.53,-7.99 3.71,0.28 7.44,0.6 11.15,1.03 0.42,-1.89 0.82,-3.78 1.22,-5.68 -12.27,0.83 -24.56,0.79 -36.84,1.13 m 13.96,5.37 c 0.68,-0.94 2.02,-2.82 2.69,-3.76 1.47,2.01 2.68,4.2 3.75,6.45 -2.19,-0.81 -4.33,-1.7 -6.44,-2.69 m 260.53,-9.12 c -1.33,4.61 0.43,9 3.56,12.24 -1.03,-4.12 -2.31,-8.17 -3.56,-12.24 M 45.61,-469.93 c 0.97,0.81 3.29,0.66 3.34,-0.91 -0.48,-1.9 -4.9,-1.03 -3.34,0.91 m -6.48,-0.7 c 1.4,2.19 3.15,-1.9 0.56,-1.29 -0.14,0.32 -0.42,0.97 -0.56,1.29 m 12,0 c 1.4,2.19 3.15,-1.9 0.56,-1.29 -0.14,0.32 -0.42,0.97 -0.56,1.29 m -60.97,-3.75 c 13.63,0.17 27.32,1.22 40.92,-0.18 -13.6,-1.33 -27.34,-1.54 -40.92,0.18 m 44.03,-0.84 c 4.58,0.21 9.2,0.4 13.8,0.42 -4.61,-0.16 -9.2,-0.4 -13.8,-0.42 m 17.2,0.54 c 0.45,1.28 2.85,0.77 2.4,-0.66 -0.46,-1.26 -2.86,-0.75 -2.4,0.66 m -60.8,-3.81 c 3.75,0 11.25,0 15,0 v -1.04 c -3.75,0 -11.25,0 -15,0 v 1.04" /></g></g></g></svg>